<svg xmlns="http://www.w3.org/2000/svg" xmlns:xlink="http://www.w3.org/1999/xlink" width="280" zoomAndPan="magnify" viewBox="0 0 210 60" height="80" preserveAspectRatio="xMidYMid meet" version="1.0"><defs><g/><clipPath id="259b8db847"><path d="M 12.21875 3 L 37.71875 3 L 37.71875 57 L 12.21875 57 Z M 12.21875 3 " clip-rule="nonzero"/></clipPath></defs><g clip-path="url(#259b8db847)"><path fill="#800000" d="M 16.378906 32.375 C 14.507812 34.824219 13.570312 37.472656 13.570312 40.316406 C 13.570312 43.703125 14.992188 46.332031 17.839844 48.203125 C 19.496094 49.320312 21.378906 49.878906 23.484375 49.878906 C 25.589844 49.878906 27.417969 49.464844 28.964844 48.636719 C 31.882812 47.125 33.519531 44.582031 33.882812 41.019531 C 33.917969 40.765625 33.9375 40.515625 33.9375 40.261719 C 33.9375 38.929688 33.566406 37.488281 32.828125 35.941406 C 32.089844 34.390625 30.894531 32.96875 29.238281 31.671875 L 19.515625 24 C 17.386719 22.34375 16.328125 20.203125 16.328125 17.574219 C 16.328125 14.945312 17.171875 12.71875 18.863281 10.902344 C 20.558594 9.082031 22.84375 8.171875 25.726562 8.171875 C 27.167969 8.171875 28.734375 8.351562 30.425781 8.710938 L 32.585938 8.710938 L 32.695312 15.359375 L 32.152344 15.359375 C 32.117188 13.628906 31.496094 12.269531 30.289062 11.277344 C 29.082031 10.289062 27.570312 9.792969 25.753906 9.792969 C 23.933594 9.792969 22.410156 10.398438 21.1875 11.605469 C 19.960938 12.8125 19.351562 14.359375 19.351562 16.25 C 19.351562 18.140625 20.140625 19.71875 21.726562 20.976562 L 31.71875 28.863281 C 35.679688 31.996094 37.664062 35.777344 37.664062 40.207031 C 37.664062 43.523438 36.347656 46.367188 33.71875 48.746094 C 31.449219 50.796875 28.425781 51.824219 24.644531 51.824219 C 22.335938 51.824219 20.285156 51.390625 18.484375 50.527344 C 15.101562 48.941406 13.066406 46.242188 12.382812 42.421875 C 12.273438 41.847656 12.21875 41.117188 12.21875 40.234375 C 12.21875 39.351562 12.472656 38.148438 12.976562 36.617188 C 13.480469 35.085938 14.453125 33.546875 15.894531 31.996094 Z M 25.753906 10.578125 C 25.179688 10.578125 24.648438 10.640625 24.152344 10.769531 L 24.152344 21.890625 L 26.476562 23.726562 L 26.476562 10.609375 C 26.242188 10.589844 26 10.578125 25.753906 10.578125 Z M 26.476562 48.75 L 26.476562 30.492188 L 24.152344 28.660156 L 24.152344 49.078125 C 24.972656 49.039062 25.75 48.929688 26.476562 48.75 Z M 24.152344 6.390625 L 24.152344 7.484375 C 24.660156 7.421875 25.183594 7.390625 25.726562 7.390625 C 25.972656 7.390625 26.222656 7.394531 26.476562 7.40625 L 26.476562 6.390625 C 26.476562 4.878906 27.503906 3.472656 28.960938 3.039062 L 21.667969 3.039062 C 23.179688 3.472656 24.152344 4.878906 24.152344 6.390625 Z M 26.476562 53.550781 L 26.476562 52.523438 C 25.882812 52.578125 25.273438 52.605469 24.644531 52.605469 C 24.480469 52.605469 24.316406 52.605469 24.152344 52.597656 L 24.152344 53.550781 C 24.152344 55.117188 23.179688 56.46875 21.667969 56.953125 L 28.960938 56.953125 C 27.5 56.46875 26.476562 55.117188 26.476562 53.550781 Z M 26.476562 53.550781 " fill-opacity="1" fill-rule="nonzero"/></g><g fill="#b88917" fill-opacity="1"><g transform="translate(46.556835, 31.819708)"><g><path d="M 10.265625 -0.5 L 10.265625 0 L 0.46875 0 L 0.46875 -0.5 L 1.09375 -0.5 C 1.863281 -0.5 2.394531 -0.691406 2.6875 -1.078125 C 2.988281 -1.460938 3.140625 -2.113281 3.140625 -3.03125 L 3.140625 -16.0625 C 3.140625 -16.957031 2.992188 -17.601562 2.703125 -18 C 2.410156 -18.40625 1.875 -18.609375 1.09375 -18.609375 L 0.46875 -18.609375 L 0.46875 -19.109375 L 10.265625 -19.109375 L 10.265625 -18.609375 L 9.640625 -18.609375 C 8.867188 -18.609375 8.332031 -18.414062 8.03125 -18.03125 C 7.726562 -17.644531 7.578125 -16.988281 7.578125 -16.0625 L 7.578125 -3.03125 C 7.578125 -2.144531 7.71875 -1.5 8 -1.09375 C 8.289062 -0.695312 8.835938 -0.5 9.640625 -0.5 Z M 10.265625 -0.5 "/></g></g></g><g fill="#b88917" fill-opacity="1"><g transform="translate(59.229571, 31.819708)"><g><path d="M 14.625 -19.546875 L 14.765625 -13.34375 L 14.234375 -13.34375 C 14.015625 -14.707031 13.296875 -15.898438 12.078125 -16.921875 C 10.867188 -17.953125 9.429688 -18.46875 7.765625 -18.46875 C 6.628906 -18.46875 5.695312 -18.191406 4.96875 -17.640625 C 4.25 -17.085938 3.890625 -16.410156 3.890625 -15.609375 C 3.890625 -14.867188 4.191406 -14.253906 4.796875 -13.765625 C 5.398438 -13.273438 6.578125 -12.75 8.328125 -12.1875 C 10.242188 -11.5625 11.675781 -11 12.625 -10.5 C 13.582031 -10.007812 14.363281 -9.3125 14.96875 -8.40625 C 15.570312 -7.5 15.875 -6.488281 15.875 -5.375 C 15.875 -3.664062 15.195312 -2.28125 13.84375 -1.21875 C 12.488281 -0.15625 10.722656 0.375 8.546875 0.375 C 7.285156 0.375 5.835938 0.0703125 4.203125 -0.53125 C 3.640625 -0.738281 3.234375 -0.84375 2.984375 -0.84375 C 2.335938 -0.84375 1.847656 -0.4375 1.515625 0.375 L 0.9375 0.375 L 0.9375 -6.625 L 1.484375 -6.625 C 1.785156 -4.78125 2.582031 -3.3125 3.875 -2.21875 C 5.164062 -1.132812 6.679688 -0.59375 8.421875 -0.59375 C 9.734375 -0.59375 10.78125 -0.863281 11.5625 -1.40625 C 12.351562 -1.957031 12.75 -2.695312 12.75 -3.625 C 12.75 -4.539062 12.382812 -5.296875 11.65625 -5.890625 C 10.90625 -6.460938 9.617188 -7.066406 7.796875 -7.703125 C 5.984375 -8.335938 4.644531 -8.890625 3.78125 -9.359375 C 2.914062 -9.828125 2.226562 -10.457031 1.71875 -11.25 C 1.21875 -12.050781 0.96875 -12.957031 0.96875 -13.96875 C 0.96875 -15.539062 1.582031 -16.863281 2.8125 -17.9375 C 4.039062 -19.007812 5.597656 -19.546875 7.484375 -19.546875 C 8.796875 -19.546875 10.1875 -19.21875 11.65625 -18.5625 C 12.363281 -18.238281 12.851562 -18.078125 13.125 -18.078125 C 13.78125 -18.078125 14.109375 -18.566406 14.109375 -19.546875 Z M 14.625 -19.546875 "/></g></g></g><g fill="#b88917" fill-opacity="1"><g transform="translate(77.991148, 31.819708)"><g><path d="M 15.515625 -9.234375 L 7.390625 -9.234375 L 7.390625 -3.03125 C 7.390625 -2.144531 7.53125 -1.5 7.8125 -1.09375 C 8.101562 -0.695312 8.648438 -0.5 9.453125 -0.5 L 9.953125 -0.5 L 9.953125 0 L 0.46875 0 L 0.46875 -0.5 L 0.890625 -0.5 C 1.660156 -0.5 2.195312 -0.6875 2.5 -1.0625 C 2.800781 -1.445312 2.953125 -2.101562 2.953125 -3.03125 L 2.953125 -16.0625 C 2.953125 -16.96875 2.800781 -17.617188 2.5 -18.015625 C 2.207031 -18.410156 1.671875 -18.609375 0.890625 -18.609375 L 0.46875 -18.609375 L 0.46875 -19.109375 L 9.953125 -19.109375 L 9.953125 -18.609375 L 9.453125 -18.609375 C 8.679688 -18.609375 8.144531 -18.414062 7.84375 -18.03125 C 7.539062 -17.644531 7.390625 -16.988281 7.390625 -16.0625 L 7.390625 -10.40625 L 15.515625 -10.40625 L 15.515625 -16.0625 C 15.515625 -16.96875 15.363281 -17.617188 15.0625 -18.015625 C 14.769531 -18.410156 14.234375 -18.609375 13.453125 -18.609375 L 13.03125 -18.609375 L 13.03125 -19.109375 L 22.453125 -19.109375 L 22.453125 -18.609375 L 22 -18.609375 C 21.238281 -18.609375 20.703125 -18.414062 20.390625 -18.03125 C 20.085938 -17.644531 19.9375 -16.988281 19.9375 -16.0625 L 19.9375 -3.03125 C 19.9375 -2.144531 20.082031 -1.5 20.375 -1.09375 C 20.664062 -0.695312 21.207031 -0.5 22 -0.5 L 22.453125 -0.5 L 22.453125 0 L 13.03125 0 L 13.03125 -0.5 L 13.453125 -0.5 C 14.222656 -0.5 14.757812 -0.6875 15.0625 -1.0625 C 15.363281 -1.445312 15.515625 -2.101562 15.515625 -3.03125 Z M 15.515625 -9.234375 "/></g></g></g><g fill="#b88917" fill-opacity="1"><g transform="translate(102.841568, 31.819708)"><g><path d="M 11.421875 -5.40625 L 5.3125 -5.40625 L 4.390625 -3.1875 C 4.171875 -2.664062 4.0625 -2.253906 4.0625 -1.953125 C 4.0625 -1.441406 4.242188 -1.078125 4.609375 -0.859375 C 4.984375 -0.640625 5.625 -0.519531 6.53125 -0.5 L 6.53125 0 L 0.390625 0 L 0.390625 -0.5 C 1.609375 -0.53125 2.71875 -1.757812 3.71875 -4.1875 L 10 -19.4375 L 10.265625 -19.4375 L 16.875 -3.34375 C 17.644531 -1.445312 18.554688 -0.5 19.609375 -0.5 L 19.609375 0 L 10.671875 0 L 10.671875 -0.5 L 11.015625 -0.5 C 12.273438 -0.5 12.90625 -0.820312 12.90625 -1.46875 C 12.90625 -1.644531 12.828125 -1.929688 12.671875 -2.328125 Z M 11.015625 -6.421875 L 8.390625 -12.84375 L 5.734375 -6.421875 Z M 11.015625 -6.421875 "/></g></g></g><g fill="#b88917" fill-opacity="1"><g transform="translate(124.810656, 31.819708)"><g><path d="M 10.90625 -12.078125 L 16.984375 -2.53125 C 17.578125 -1.59375 18.023438 -1.019531 18.328125 -0.8125 C 18.628906 -0.601562 19.066406 -0.5 19.640625 -0.5 L 19.640625 0 L 10.734375 0 L 10.734375 -0.5 C 11.878906 -0.5 12.453125 -0.75 12.453125 -1.25 C 12.453125 -1.570312 12.210938 -2.113281 11.734375 -2.875 L 8.03125 -8.71875 L 7.390625 -7.96875 L 7.390625 -3.03125 C 7.390625 -1.988281 7.5625 -1.304688 7.90625 -0.984375 C 8.25 -0.660156 8.816406 -0.5 9.609375 -0.5 L 9.609375 0 L 0.375 0 L 0.375 -0.5 L 0.90625 -0.5 C 1.675781 -0.5 2.210938 -0.691406 2.515625 -1.078125 C 2.816406 -1.460938 2.96875 -2.113281 2.96875 -3.03125 L 2.96875 -16.0625 C 2.96875 -16.957031 2.820312 -17.601562 2.53125 -18 C 2.238281 -18.40625 1.695312 -18.609375 0.90625 -18.609375 L 0.375 -18.609375 L 0.375 -19.109375 L 9.609375 -19.109375 L 9.609375 -18.609375 C 8.828125 -18.609375 8.257812 -18.445312 7.90625 -18.125 C 7.5625 -17.800781 7.390625 -17.113281 7.390625 -16.0625 L 7.390625 -9.5625 L 12.234375 -15.25 C 13.097656 -16.257812 13.53125 -17.019531 13.53125 -17.53125 C 13.53125 -18.25 12.929688 -18.609375 11.734375 -18.609375 L 11.46875 -18.609375 L 11.46875 -19.109375 L 18.640625 -19.109375 L 18.640625 -18.609375 C 17.734375 -18.554688 16.867188 -18.226562 16.046875 -17.625 C 15.222656 -17.03125 14.082031 -15.859375 12.625 -14.109375 Z M 10.90625 -12.078125 "/></g></g></g><g fill="#b88917" fill-opacity="1"><g transform="translate(146.779743, 31.819708)"><g><path d="M 11.421875 -5.40625 L 5.3125 -5.40625 L 4.390625 -3.1875 C 4.171875 -2.664062 4.0625 -2.253906 4.0625 -1.953125 C 4.0625 -1.441406 4.242188 -1.078125 4.609375 -0.859375 C 4.984375 -0.640625 5.625 -0.519531 6.53125 -0.5 L 6.53125 0 L 0.390625 0 L 0.390625 -0.5 C 1.609375 -0.53125 2.71875 -1.757812 3.71875 -4.1875 L 10 -19.4375 L 10.265625 -19.4375 L 16.875 -3.34375 C 17.644531 -1.445312 18.554688 -0.5 19.609375 -0.5 L 19.609375 0 L 10.671875 0 L 10.671875 -0.5 L 11.015625 -0.5 C 12.273438 -0.5 12.90625 -0.820312 12.90625 -1.46875 C 12.90625 -1.644531 12.828125 -1.929688 12.671875 -2.328125 Z M 11.015625 -6.421875 L 8.390625 -12.84375 L 5.734375 -6.421875 Z M 11.015625 -6.421875 "/></g></g></g><g fill="#b88917" fill-opacity="1"><g transform="translate(168.748831, 31.819708)"><g><path d="M 17.921875 -6.53125 L 17.234375 0 L 0.453125 0 L 0.453125 -0.5 L 1.40625 -0.5 C 2.175781 -0.5 2.707031 -0.691406 3 -1.078125 C 3.300781 -1.460938 3.453125 -2.113281 3.453125 -3.03125 L 3.453125 -16.0625 C 3.453125 -16.957031 3.304688 -17.601562 3.015625 -18 C 2.722656 -18.40625 2.1875 -18.609375 1.40625 -18.609375 L 0.453125 -18.609375 L 0.453125 -19.109375 L 11.25 -19.109375 L 11.25 -18.609375 L 9.953125 -18.609375 C 9.179688 -18.609375 8.644531 -18.414062 8.34375 -18.03125 C 8.050781 -17.644531 7.90625 -16.988281 7.90625 -16.0625 L 7.90625 -3.28125 C 7.90625 -2.382812 8.003906 -1.773438 8.203125 -1.453125 C 8.410156 -1.140625 8.90625 -0.984375 9.6875 -0.984375 L 11.546875 -0.984375 C 12.535156 -0.984375 13.378906 -1.132812 14.078125 -1.4375 C 14.785156 -1.738281 15.429688 -2.296875 16.015625 -3.109375 C 16.597656 -3.929688 17.066406 -5.070312 17.421875 -6.53125 Z M 17.921875 -6.53125 "/></g></g></g><g fill="#b88917" fill-opacity="1"><g transform="translate(189.263664, 31.819708)"><g><path d="M 11.421875 -5.40625 L 5.3125 -5.40625 L 4.390625 -3.1875 C 4.171875 -2.664062 4.0625 -2.253906 4.0625 -1.953125 C 4.0625 -1.441406 4.242188 -1.078125 4.609375 -0.859375 C 4.984375 -0.640625 5.625 -0.519531 6.53125 -0.5 L 6.53125 0 L 0.390625 0 L 0.390625 -0.5 C 1.609375 -0.53125 2.71875 -1.757812 3.71875 -4.1875 L 10 -19.4375 L 10.265625 -19.4375 L 16.875 -3.34375 C 17.644531 -1.445312 18.554688 -0.5 19.609375 -0.5 L 19.609375 0 L 10.671875 0 L 10.671875 -0.5 L 11.015625 -0.5 C 12.273438 -0.5 12.90625 -0.820312 12.90625 -1.46875 C 12.90625 -1.644531 12.828125 -1.929688 12.671875 -2.328125 Z M 11.015625 -6.421875 L 8.390625 -12.84375 L 5.734375 -6.421875 Z M 11.015625 -6.421875 "/></g></g></g><g fill="#800000" fill-opacity="1"><g transform="translate(87.332473, 55.819708)"><g><path d="M 14.625 -19.546875 L 14.765625 -13.34375 L 14.234375 -13.34375 C 14.015625 -14.707031 13.296875 -15.898438 12.078125 -16.921875 C 10.867188 -17.953125 9.429688 -18.46875 7.765625 -18.46875 C 6.628906 -18.46875 5.695312 -18.191406 4.96875 -17.640625 C 4.25 -17.085938 3.890625 -16.410156 3.890625 -15.609375 C 3.890625 -14.867188 4.191406 -14.253906 4.796875 -13.765625 C 5.398438 -13.273438 6.578125 -12.75 8.328125 -12.1875 C 10.242188 -11.5625 11.675781 -11 12.625 -10.5 C 13.582031 -10.007812 14.363281 -9.3125 14.96875 -8.40625 C 15.570312 -7.5 15.875 -6.488281 15.875 -5.375 C 15.875 -3.664062 15.195312 -2.28125 13.84375 -1.21875 C 12.488281 -0.15625 10.722656 0.375 8.546875 0.375 C 7.285156 0.375 5.835938 0.0703125 4.203125 -0.53125 C 3.640625 -0.738281 3.234375 -0.84375 2.984375 -0.84375 C 2.335938 -0.84375 1.847656 -0.4375 1.515625 0.375 L 0.9375 0.375 L 0.9375 -6.625 L 1.484375 -6.625 C 1.785156 -4.78125 2.582031 -3.3125 3.875 -2.21875 C 5.164062 -1.132812 6.679688 -0.59375 8.421875 -0.59375 C 9.734375 -0.59375 10.78125 -0.863281 11.5625 -1.40625 C 12.351562 -1.957031 12.75 -2.695312 12.75 -3.625 C 12.75 -4.539062 12.382812 -5.296875 11.65625 -5.890625 C 10.90625 -6.460938 9.617188 -7.066406 7.796875 -7.703125 C 5.984375 -8.335938 4.644531 -8.890625 3.78125 -9.359375 C 2.914062 -9.828125 2.226562 -10.457031 1.71875 -11.25 C 1.21875 -12.050781 0.96875 -12.957031 0.96875 -13.96875 C 0.96875 -15.539062 1.582031 -16.863281 2.8125 -17.9375 C 4.039062 -19.007812 5.597656 -19.546875 7.484375 -19.546875 C 8.796875 -19.546875 10.1875 -19.21875 11.65625 -18.5625 C 12.363281 -18.238281 12.851562 -18.078125 13.125 -18.078125 C 13.78125 -18.078125 14.109375 -18.566406 14.109375 -19.546875 Z M 14.625 -19.546875 "/></g></g></g><g fill="#800000" fill-opacity="1"><g transform="translate(106.09405, 55.819708)"><g><path d="M 17.890625 -19.109375 L 17.890625 -14.078125 L 17.375 -14.078125 C 17.007812 -16.734375 15.648438 -18.0625 13.296875 -18.0625 L 11.5 -18.0625 L 11.5 -3.03125 C 11.5 -2.144531 11.644531 -1.5 11.9375 -1.09375 C 12.226562 -0.695312 12.769531 -0.5 13.5625 -0.5 L 14.25 -0.5 L 14.25 0 L 4.28125 0 L 4.28125 -0.5 L 5.015625 -0.5 C 5.617188 -0.5 6.109375 -0.640625 6.484375 -0.921875 C 6.867188 -1.203125 7.0625 -1.90625 7.0625 -3.03125 L 7.0625 -18.0625 L 5.109375 -18.0625 C 4.359375 -18.0625 3.738281 -17.9375 3.25 -17.6875 C 2.757812 -17.4375 2.316406 -16.96875 1.921875 -16.28125 C 1.535156 -15.601562 1.300781 -14.867188 1.21875 -14.078125 L 0.671875 -14.078125 L 0.671875 -19.109375 Z M 17.890625 -19.109375 "/></g></g></g><g fill="#800000" fill-opacity="1"><g transform="translate(126.608887, 55.819708)"><g><path d="M 21.078125 -19.109375 L 21.078125 -18.609375 C 20.328125 -18.609375 19.722656 -18.429688 19.265625 -18.078125 C 18.804688 -17.722656 18.578125 -16.992188 18.578125 -15.890625 L 18.578125 -8.453125 C 18.578125 -6.835938 18.503906 -5.597656 18.359375 -4.734375 C 18.222656 -3.878906 17.84375 -3.039062 17.21875 -2.21875 C 16.59375 -1.394531 15.753906 -0.753906 14.703125 -0.296875 C 13.660156 0.148438 12.375 0.375 10.84375 0.375 C 9.382812 0.375 8.140625 0.179688 7.109375 -0.203125 C 6.085938 -0.585938 5.269531 -1.085938 4.65625 -1.703125 C 4.039062 -2.328125 3.617188 -3.007812 3.390625 -3.75 C 3.171875 -4.5 3.0625 -5.5 3.0625 -6.75 L 3.0625 -15.890625 C 3.0625 -16.660156 3.015625 -17.203125 2.921875 -17.515625 C 2.828125 -17.835938 2.617188 -18.097656 2.296875 -18.296875 C 1.984375 -18.503906 1.460938 -18.609375 0.734375 -18.609375 L 0.375 -18.609375 L 0.375 -19.109375 L 9.859375 -19.109375 L 9.859375 -18.609375 L 9.546875 -18.609375 C 9.003906 -18.609375 8.570312 -18.503906 8.25 -18.296875 C 7.9375 -18.085938 7.734375 -17.832031 7.640625 -17.53125 C 7.546875 -17.238281 7.5 -16.691406 7.5 -15.890625 L 7.5 -6.375 C 7.5 -4.925781 7.59375 -3.890625 7.78125 -3.265625 C 7.96875 -2.648438 8.4375 -2.09375 9.1875 -1.59375 C 9.9375 -1.101562 10.898438 -0.859375 12.078125 -0.859375 C 13.117188 -0.859375 14.023438 -1.054688 14.796875 -1.453125 C 15.578125 -1.859375 16.175781 -2.382812 16.59375 -3.03125 C 17.007812 -3.675781 17.28125 -4.375 17.40625 -5.125 C 17.53125 -5.882812 17.59375 -7.039062 17.59375 -8.59375 L 17.59375 -15.890625 C 17.59375 -16.847656 17.421875 -17.519531 17.078125 -17.90625 C 16.734375 -18.300781 16.109375 -18.535156 15.203125 -18.609375 L 15.203125 -19.109375 Z M 21.078125 -19.109375 "/></g></g></g><g fill="#800000" fill-opacity="1"><g transform="translate(150.018643, 55.819708)"><g><path d="M 0.484375 0 L 0.484375 -0.5 L 1.0625 -0.5 C 1.664062 -0.5 2.15625 -0.640625 2.53125 -0.921875 C 2.914062 -1.203125 3.109375 -1.90625 3.109375 -3.03125 L 3.109375 -16.0625 C 3.109375 -16.957031 2.960938 -17.601562 2.671875 -18 C 2.390625 -18.40625 1.851562 -18.609375 1.0625 -18.609375 L 0.484375 -18.609375 L 0.484375 -19.109375 L 9.578125 -19.109375 C 11.648438 -19.109375 13.4375 -18.828125 14.9375 -18.265625 C 16.4375 -17.703125 17.738281 -16.65625 18.84375 -15.125 C 19.945312 -13.59375 20.5 -11.695312 20.5 -9.4375 C 20.5 -7.738281 20.175781 -6.238281 19.53125 -4.9375 C 18.894531 -3.644531 18.0625 -2.617188 17.03125 -1.859375 C 16 -1.109375 14.925781 -0.609375 13.8125 -0.359375 C 12.707031 -0.117188 11.296875 0 9.578125 0 Z M 7.5625 -18.09375 L 7.5625 -3.1875 C 7.5625 -2.28125 7.679688 -1.691406 7.921875 -1.421875 C 8.160156 -1.148438 8.726562 -1.015625 9.625 -1.015625 C 11.601562 -1.015625 13.082031 -1.707031 14.0625 -3.09375 C 15.050781 -4.476562 15.546875 -6.546875 15.546875 -9.296875 C 15.546875 -12.234375 15.007812 -14.429688 13.9375 -15.890625 C 12.863281 -17.359375 11.25 -18.09375 9.09375 -18.09375 Z M 7.5625 -18.09375 "/></g></g></g><g fill="#800000" fill-opacity="1"><g transform="translate(173.428394, 55.819708)"><g><path d="M 10.265625 -0.5 L 10.265625 0 L 0.46875 0 L 0.46875 -0.5 L 1.09375 -0.5 C 1.863281 -0.5 2.394531 -0.691406 2.6875 -1.078125 C 2.988281 -1.460938 3.140625 -2.113281 3.140625 -3.03125 L 3.140625 -16.0625 C 3.140625 -16.957031 2.992188 -17.601562 2.703125 -18 C 2.410156 -18.40625 1.875 -18.609375 1.09375 -18.609375 L 0.46875 -18.609375 L 0.46875 -19.109375 L 10.265625 -19.109375 L 10.265625 -18.609375 L 9.640625 -18.609375 C 8.867188 -18.609375 8.332031 -18.414062 8.03125 -18.03125 C 7.726562 -17.644531 7.578125 -16.988281 7.578125 -16.0625 L 7.578125 -3.03125 C 7.578125 -2.144531 7.71875 -1.5 8 -1.09375 C 8.289062 -0.695312 8.835938 -0.5 9.640625 -0.5 Z M 10.265625 -0.5 "/></g></g></g><g fill="#800000" fill-opacity="1"><g transform="translate(186.101127, 55.819708)"><g><path d="M 21.75 -9.484375 C 21.75 -6.691406 20.8125 -4.347656 18.9375 -2.453125 C 17.0625 -0.566406 14.570312 0.375 11.46875 0.375 C 9.570312 0.375 7.875 0.0078125 6.375 -0.71875 C 4.882812 -1.457031 3.640625 -2.59375 2.640625 -4.125 C 1.648438 -5.65625 1.15625 -7.476562 1.15625 -9.59375 C 1.15625 -11.75 1.664062 -13.59375 2.6875 -15.125 C 3.71875 -16.65625 5.007812 -17.773438 6.5625 -18.484375 C 8.113281 -19.191406 9.734375 -19.546875 11.421875 -19.546875 C 14.421875 -19.546875 16.890625 -18.613281 18.828125 -16.75 C 20.773438 -14.882812 21.75 -12.460938 21.75 -9.484375 Z M 16.796875 -9.359375 C 16.796875 -12.304688 16.300781 -14.570312 15.3125 -16.15625 C 14.320312 -17.738281 13.039062 -18.53125 11.46875 -18.53125 C 9.863281 -18.53125 8.566406 -17.753906 7.578125 -16.203125 C 6.597656 -14.648438 6.109375 -12.445312 6.109375 -9.59375 C 6.109375 -6.945312 6.570312 -4.78125 7.5 -3.09375 C 8.4375 -1.414062 9.738281 -0.578125 11.40625 -0.578125 C 13.039062 -0.578125 14.347656 -1.363281 15.328125 -2.9375 C 16.304688 -4.507812 16.796875 -6.648438 16.796875 -9.359375 Z M 16.796875 -9.359375 "/></g></g></g></svg>