<svg xmlns="http://www.w3.org/2000/svg" xmlns:xlink="http://www.w3.org/1999/xlink" width="280" zoomAndPan="magnify" viewBox="0 0 210 60" height="80" preserveAspectRatio="xMidYMid meet" version="1.0"><defs><g/><clipPath id="b1e329aed4"><path d="M 4.324219 8.445312 L 29.691406 8.445312 L 29.691406 51.328125 L 4.324219 51.328125 Z M 4.324219 8.445312 " clip-rule="nonzero"/></clipPath><clipPath id="87598fefa0"><path d="M 27.878906 8.445312 L 62.308594 8.445312 L 62.308594 51.328125 L 27.878906 51.328125 Z M 27.878906 8.445312 " clip-rule="nonzero"/></clipPath></defs><rect x="-21" width="252" fill="#ffffff" y="-6" height="72" fill-opacity="1"/><rect x="-21" width="252" fill="#ffffff" y="-6" height="72" fill-opacity="1"/><g clip-path="url(#b1e329aed4)"><path fill="#1f7f95" d="M 27.992188 31.960938 C 27.894531 31.828125 27.734375 31.792969 27.675781 31.925781 C 27.570312 32.15625 27.46875 32.390625 27.472656 32.707031 C 27.46875 33.03125 27.578125 33.390625 27.789062 33.601562 C 28.117188 33.9375 28.542969 33.761719 28.8125 33.550781 C 29.117188 33.320312 29.34375 32.921875 29.457031 32.417969 C 29.515625 32.171875 29.542969 31.882812 29.535156 31.582031 C 29.527344 31.429688 29.515625 31.273438 29.488281 31.121094 C 29.460938 30.964844 29.421875 30.808594 29.367188 30.65625 C 29.292969 30.445312 29.210938 30.273438 29.121094 30.140625 C 29.03125 30.003906 28.933594 29.90625 28.832031 29.835938 C 28.632812 29.695312 28.421875 29.671875 28.222656 29.722656 C 27.820312 29.820312 27.449219 30.191406 27.242188 30.46875 C 27.101562 30.65625 26.980469 30.859375 26.855469 31.066406 C 26.730469 31.273438 26.613281 31.488281 26.496094 31.703125 C 26.277344 32.105469 26.046875 32.511719 25.832031 32.925781 L 25.527344 33.523438 C 25.429688 33.722656 25.332031 33.925781 25.238281 34.128906 C 25.300781 33.726562 25.386719 33.324219 25.457031 32.921875 C 25.496094 32.722656 25.539062 32.523438 25.585938 32.324219 C 25.625 32.125 25.667969 31.925781 25.71875 31.726562 C 26.039062 30.390625 26.429688 29.113281 26.960938 28.003906 C 26.988281 27.945312 26.976562 27.847656 26.945312 27.753906 C 26.910156 27.664062 26.851562 27.570312 26.792969 27.511719 C 26.644531 27.371094 26.527344 27.410156 26.46875 27.53125 C 26.351562 27.785156 26.246094 28.046875 26.144531 28.320312 C 26.039062 28.59375 25.945312 28.875 25.859375 29.164062 C 25.777344 29.449219 25.6875 29.742188 25.609375 30.035156 C 25.570312 30.183594 25.535156 30.332031 25.5 30.484375 C 25.460938 30.632812 25.425781 30.785156 25.386719 30.933594 C 25.109375 32.144531 24.878906 33.394531 24.6875 34.648438 C 24.648438 34.890625 24.617188 35.136719 24.578125 35.375 C 24.527344 35.15625 24.453125 34.941406 24.371094 34.726562 C 24.332031 34.621094 24.292969 34.515625 24.25 34.410156 C 24.203125 34.308594 24.15625 34.203125 24.109375 34.101562 C 24.042969 33.96875 23.976562 33.835938 23.910156 33.703125 L 23.695312 33.308594 C 23.554688 33.046875 23.398438 32.789062 23.253906 32.527344 L 23.148438 32.332031 L 23.039062 32.136719 C 22.96875 32.007812 22.898438 31.875 22.832031 31.742188 C 22.695312 31.476562 22.558594 31.210938 22.433594 30.933594 C 22.277344 30.625 22.140625 30.300781 22 29.988281 L 21.796875 29.515625 C 21.734375 29.359375 21.671875 29.203125 21.613281 29.050781 C 21.519531 28.804688 21.183594 28.742188 21.167969 29.003906 C 21.136719 29.554688 21.175781 30.125 21.273438 30.703125 C 21.3125 30.996094 21.378906 31.285156 21.445312 31.574219 C 21.507812 31.863281 21.59375 32.144531 21.679688 32.429688 C 21.722656 32.570312 21.769531 32.707031 21.820312 32.839844 C 21.867188 32.976562 21.917969 33.113281 21.972656 33.246094 C 22.089844 33.511719 22.199219 33.777344 22.332031 34.027344 C 22.628906 34.613281 23 35.144531 23.328125 35.703125 C 23.515625 36.019531 23.6875 36.351562 23.828125 36.703125 C 23.960938 37.050781 24.066406 37.421875 24.09375 37.804688 C 24.097656 37.851562 24.105469 37.890625 24.121094 37.921875 C 24.085938 38.09375 24.046875 38.265625 24.003906 38.433594 C 23.960938 38.597656 23.917969 38.765625 23.871094 38.929688 C 23.769531 39.257812 23.671875 39.582031 23.554688 39.894531 C 23.324219 40.519531 23.03125 41.105469 22.683594 41.640625 C 22.214844 42.351562 21.621094 42.9375 20.9375 43.320312 C 20.925781 42.914062 20.921875 42.488281 20.921875 42.035156 L 20.996094 17.957031 C 20.996094 16.3125 21.066406 14.957031 21.136719 13.882812 C 21.28125 12.738281 21.566406 11.953125 21.921875 11.3125 C 22.351562 10.667969 22.921875 10.238281 23.636719 10.023438 C 24.351562 9.738281 25.351562 9.597656 26.496094 9.523438 L 26.496094 8.453125 L 9.492188 8.453125 L 9.492188 9.523438 C 10.707031 9.597656 11.707031 9.738281 12.421875 10.023438 C 13.136719 10.238281 13.707031 10.667969 14.136719 11.238281 C 14.492188 11.882812 14.777344 12.667969 14.921875 13.667969 C 15.0625 14.742188 15.0625 16.027344 15.0625 17.597656 L 15.0625 25.863281 C 14.757812 25.367188 14.472656 24.859375 14.207031 24.339844 C 13.816406 23.578125 13.46875 22.789062 13.179688 21.980469 C 13.179688 21.960938 13.183594 21.941406 13.183594 21.921875 C 13.15625 21.367188 13.324219 20.867188 13.554688 20.398438 C 13.609375 20.28125 13.667969 20.167969 13.730469 20.050781 C 13.789062 19.9375 13.855469 19.824219 13.917969 19.714844 C 14.046875 19.488281 14.164062 19.269531 14.273438 19.046875 C 14.671875 18.1875 14.832031 17.277344 14.746094 16.390625 C 14.722656 16.140625 14.683594 15.894531 14.613281 15.65625 C 14.554688 15.414062 14.46875 15.175781 14.363281 14.941406 C 14.269531 14.730469 13.96875 14.761719 13.941406 15.003906 C 13.863281 15.828125 13.652344 16.652344 13.324219 17.449219 C 13.140625 17.886719 12.929688 18.3125 12.738281 18.765625 C 12.859375 17.714844 12.96875 16.699219 12.890625 15.664062 C 12.878906 15.460938 12.855469 15.253906 12.820312 15.050781 C 12.789062 14.847656 12.75 14.644531 12.699219 14.441406 C 12.628906 14.167969 12.21875 14.273438 12.285156 14.554688 C 12.449219 15.253906 12.507812 15.949219 12.488281 16.652344 C 12.484375 16.828125 12.476562 17.007812 12.464844 17.183594 C 12.449219 17.359375 12.441406 17.539062 12.421875 17.714844 C 12.382812 18.070312 12.355469 18.425781 12.304688 18.78125 C 12.304688 18.804688 12.296875 18.832031 12.296875 18.855469 L 12.171875 18.167969 C 12.132812 17.941406 12.105469 17.710938 12.070312 17.480469 C 12.007812 17.011719 11.96875 16.535156 11.929688 16.0625 L 11.925781 16 C 11.90625 15.707031 11.476562 15.722656 11.5 16.027344 L 11.535156 16.527344 C 11.546875 16.695312 11.570312 16.863281 11.585938 17.03125 C 11.617188 17.359375 11.667969 17.683594 11.714844 18.007812 C 11.734375 18.171875 11.769531 18.332031 11.796875 18.492188 C 11.828125 18.65625 11.851562 18.816406 11.886719 18.976562 C 11.347656 18.027344 10.945312 16.949219 10.914062 15.804688 C 10.910156 15.589844 10.917969 15.378906 10.9375 15.167969 C 10.957031 14.957031 11 14.75 11.046875 14.546875 C 11.117188 14.25 10.707031 14.109375 10.636719 14.414062 C 10.589844 14.609375 10.550781 14.808594 10.523438 15.007812 C 10.5 15.207031 10.492188 15.410156 10.488281 15.609375 C 10.488281 15.710938 10.488281 15.8125 10.492188 15.914062 C 10.5 16.011719 10.507812 16.113281 10.515625 16.214844 C 10.539062 16.414062 10.558594 16.613281 10.601562 16.8125 C 10.753906 17.601562 11.0625 18.359375 11.425781 19.042969 L 11.507812 19.179688 C 11.480469 19.152344 11.453125 19.121094 11.425781 19.09375 C 11.257812 18.921875 11.097656 18.746094 10.933594 18.566406 C 10.851562 18.476562 10.769531 18.386719 10.691406 18.292969 C 10.617188 18.199219 10.539062 18.101562 10.464844 18.003906 C 10.398438 17.910156 10.328125 17.8125 10.261719 17.710938 L 10.164062 17.558594 L 10.074219 17.402344 C 9.960938 17.191406 9.851562 16.972656 9.757812 16.742188 C 9.65625 16.480469 9.566406 16.207031 9.492188 15.929688 C 9.425781 15.648438 9.371094 15.363281 9.335938 15.074219 C 9.308594 14.78125 9.011719 14.730469 8.917969 15.011719 C 8.570312 16.089844 8.632812 17.359375 9.0625 18.421875 C 9.277344 18.960938 9.578125 19.453125 9.949219 19.847656 C 10.054688 19.957031 10.15625 20.058594 10.265625 20.15625 C 10.378906 20.25 10.492188 20.339844 10.605469 20.429688 C 10.835938 20.601562 11.066406 20.765625 11.304688 20.921875 C 11.554688 21.089844 11.800781 21.265625 12.035156 21.457031 C 12.15625 21.550781 12.269531 21.652344 12.375 21.757812 C 12.480469 21.867188 12.578125 21.984375 12.671875 22.105469 C 12.710938 22.15625 12.753906 22.183594 12.800781 22.191406 C 12.964844 22.640625 13.148438 23.082031 13.339844 23.519531 L 13.597656 24.078125 L 13.871094 24.628906 C 13.960938 24.8125 14.066406 24.988281 14.164062 25.167969 L 14.3125 25.4375 C 14.363281 25.527344 14.417969 25.613281 14.46875 25.703125 C 14.65625 26.027344 14.859375 26.34375 15.0625 26.652344 L 15.0625 31.242188 C 14.707031 31.050781 14.355469 30.84375 14.007812 30.617188 C 13.742188 30.449219 13.476562 30.269531 13.207031 30.085938 C 13.199219 30.050781 13.183594 30.019531 13.160156 29.988281 C 12.792969 29.488281 12.59375 28.894531 12.445312 28.269531 C 12.371094 27.957031 12.304688 27.640625 12.246094 27.320312 C 12.183594 27 12.113281 26.691406 12.03125 26.378906 C 11.738281 25.316406 11.210938 24.292969 10.53125 23.429688 C 10.433594 23.300781 10.332031 23.179688 10.226562 23.058594 C 10.121094 22.941406 10.011719 22.828125 9.902344 22.714844 C 9.6875 22.492188 9.449219 22.285156 9.203125 22.097656 C 9.101562 22.019531 9.007812 22.050781 8.953125 22.132812 C 8.898438 22.214844 8.882812 22.34375 8.945312 22.457031 C 9.476562 23.460938 9.910156 24.523438 10.226562 25.617188 C 10.378906 26.128906 10.496094 26.648438 10.65625 27.164062 C 10.695312 27.289062 10.734375 27.421875 10.777344 27.546875 C 10.820312 27.675781 10.871094 27.800781 10.917969 27.929688 C 11.019531 28.179688 11.128906 28.433594 11.261719 28.667969 L 11.078125 28.53125 C 10.078125 27.769531 9.058594 27.042969 7.996094 26.445312 C 7.714844 26.28125 7.425781 26.132812 7.140625 25.992188 C 6.855469 25.847656 6.570312 25.714844 6.28125 25.59375 C 5.992188 25.472656 5.707031 25.363281 5.421875 25.265625 C 5.132812 25.167969 4.847656 25.082031 4.558594 25.011719 C 4.433594 24.980469 4.328125 25.042969 4.324219 25.222656 C 4.324219 25.371094 4.429688 25.589844 4.554688 25.621094 C 5.058594 25.738281 5.574219 25.898438 6.082031 26.097656 C 6.589844 26.296875 7.109375 26.53125 7.613281 26.800781 C 8.007812 27.011719 8.410156 27.238281 8.792969 27.488281 C 8.988281 27.609375 9.1875 27.734375 9.378906 27.863281 C 9.570312 27.992188 9.757812 28.128906 9.953125 28.261719 C 9.648438 28.15625 9.351562 28.050781 9.046875 27.960938 C 8.828125 27.890625 8.605469 27.828125 8.378906 27.761719 C 8.160156 27.699219 7.9375 27.636719 7.714844 27.582031 C 7.273438 27.464844 6.820312 27.371094 6.394531 27.300781 C 5.933594 27.230469 5.476562 27.210938 5.074219 27.355469 C 4.714844 27.484375 4.367188 27.773438 4.496094 28.421875 C 4.621094 28.964844 5.042969 29.480469 5.433594 29.785156 C 5.632812 29.941406 5.839844 30.070312 6.046875 30.160156 C 6.25 30.253906 6.460938 30.304688 6.65625 30.320312 C 7.066406 30.351562 7.589844 30.253906 7.71875 29.816406 C 7.761719 29.683594 7.753906 29.53125 7.707031 29.375 C 7.660156 29.222656 7.582031 29.066406 7.472656 28.933594 C 7.246094 28.660156 6.96875 28.558594 6.707031 28.46875 C 6.578125 28.421875 6.484375 28.554688 6.503906 28.707031 C 6.523438 28.878906 6.652344 29.019531 6.785156 29.0625 C 6.917969 29.105469 7.121094 29.15625 7.226562 29.324219 C 7.292969 29.4375 7.222656 29.511719 7.167969 29.554688 C 6.960938 29.722656 6.65625 29.75 6.363281 29.683594 C 6.058594 29.617188 5.734375 29.445312 5.441406 29.175781 C 5.242188 28.988281 4.878906 28.570312 4.957031 28.285156 C 5 28.128906 5.136719 28.058594 5.25 28.003906 C 5.394531 27.933594 5.554688 27.894531 5.722656 27.875 C 6.082031 27.839844 6.460938 27.890625 6.84375 27.964844 C 7.574219 28.109375 8.332031 28.289062 9.070312 28.503906 C 9.480469 28.621094 9.890625 28.753906 10.296875 28.90625 C 10.5 28.980469 10.703125 29.054688 10.902344 29.140625 C 11.101562 29.21875 11.296875 29.300781 11.492188 29.390625 L 11.5 29.394531 C 11.914062 29.695312 12.316406 29.988281 12.710938 30.261719 C 13.101562 30.53125 13.484375 30.792969 13.855469 31.027344 C 13.605469 31.023438 13.359375 31.050781 13.109375 31.09375 C 12.863281 31.136719 12.617188 31.199219 12.378906 31.273438 C 11.910156 31.417969 11.449219 31.589844 10.964844 31.707031 C 10.757812 31.757812 10.539062 31.789062 10.320312 31.808594 C 10.097656 31.828125 9.875 31.839844 9.648438 31.828125 C 9.125 31.804688 8.59375 31.699219 8.035156 31.476562 C 7.914062 31.429688 7.828125 31.488281 7.800781 31.585938 C 7.769531 31.679688 7.800781 31.824219 7.902344 31.921875 C 8.351562 32.359375 8.816406 32.664062 9.28125 32.875 C 9.511719 32.972656 9.75 33.058594 9.976562 33.105469 C 10.09375 33.132812 10.210938 33.15625 10.324219 33.171875 C 10.441406 33.1875 10.554688 33.195312 10.667969 33.199219 C 10.785156 33.207031 10.898438 33.207031 11.011719 33.203125 C 11.125 33.195312 11.238281 33.1875 11.347656 33.171875 C 11.570312 33.140625 11.796875 33.097656 12.011719 33.03125 C 12.546875 32.871094 13.039062 32.59375 13.539062 32.339844 C 14.019531 32.089844 14.523438 31.863281 15.0625 31.816406 L 15.0625 42.390625 C 15.0625 44.105469 14.992188 45.535156 14.777344 46.535156 C 14.636719 47.609375 14.347656 48.394531 13.921875 48.894531 C 13.492188 49.464844 12.847656 49.894531 12.0625 50.035156 C 11.207031 50.25 10.203125 50.394531 8.847656 50.394531 L 8.847656 51.539062 L 26.996094 51.539062 L 26.996094 50.464844 C 25.710938 50.394531 24.636719 50.324219 23.851562 50.109375 C 23.066406 49.964844 22.421875 49.535156 21.996094 48.964844 C 21.566406 48.324219 21.28125 47.535156 21.136719 46.394531 C 21.042969 45.695312 20.980469 44.847656 20.949219 43.828125 C 22.0625 43.300781 22.933594 42.265625 23.558594 41.003906 C 24.035156 40.636719 24.570312 40.492188 25.121094 40.394531 C 25.667969 40.292969 26.226562 40.238281 26.746094 40.015625 C 27.183594 39.832031 27.597656 39.535156 27.949219 39.140625 C 28.308594 38.746094 28.609375 38.25 28.84375 37.679688 C 29.09375 37.042969 29.25 36.300781 29.265625 35.507812 C 29.273438 35.175781 28.972656 34.980469 28.863281 35.242188 C 28.75 35.5 28.632812 35.746094 28.5 35.976562 C 28.371094 36.203125 28.222656 36.417969 28.070312 36.613281 C 27.765625 37.007812 27.414062 37.332031 27.042969 37.589844 C 26.632812 37.871094 26.195312 38.066406 25.761719 38.273438 C 25.324219 38.480469 24.902344 38.703125 24.503906 39.015625 C 24.410156 39.085938 24.320312 39.164062 24.230469 39.246094 C 24.527344 38.25 24.730469 37.1875 24.910156 36.101562 L 24.914062 36.09375 C 25.488281 34.582031 26.273438 33.214844 27.054688 31.898438 C 27.257812 31.550781 27.464844 31.199219 27.71875 30.921875 C 27.945312 30.671875 28.222656 30.425781 28.546875 30.417969 C 28.652344 30.414062 28.773438 30.441406 28.871094 30.597656 C 28.984375 30.777344 29.03125 31.023438 29.058594 31.226562 C 29.101562 31.65625 29.042969 32.070312 28.917969 32.378906 C 28.769531 32.738281 28.53125 32.996094 28.246094 33.082031 C 28.171875 33.105469 27.988281 33.171875 27.933594 33 C 27.863281 32.792969 27.996094 32.574219 28.054688 32.445312 C 28.113281 32.316406 28.101562 32.109375 27.992188 31.960938 Z M 10.484375 19.738281 C 10.300781 19.570312 10.125 19.382812 9.972656 19.175781 C 9.824219 18.96875 9.691406 18.746094 9.570312 18.507812 C 9.460938 18.265625 9.367188 18.015625 9.292969 17.753906 C 9.21875 17.492188 9.171875 17.222656 9.144531 16.949219 C 9.117188 16.710938 9.121094 16.46875 9.132812 16.230469 C 9.179688 16.394531 9.230469 16.554688 9.285156 16.710938 C 9.335938 16.867188 9.40625 17.019531 9.472656 17.171875 C 9.539062 17.320312 9.613281 17.46875 9.6875 17.609375 C 9.769531 17.753906 9.851562 17.890625 9.941406 18.023438 C 10.210938 18.445312 10.550781 18.804688 10.875 19.15625 C 11.046875 19.332031 11.210938 19.503906 11.371094 19.679688 C 11.453125 19.769531 11.53125 19.855469 11.609375 19.945312 C 11.691406 20.035156 11.765625 20.128906 11.839844 20.222656 C 12.070312 20.527344 12.28125 20.847656 12.410156 21.207031 C 11.820312 20.679688 11.09375 20.296875 10.484375 19.738281 Z M 12.855469 21.03125 L 12.8125 20.894531 C 12.785156 20.71875 12.777344 20.539062 12.78125 20.359375 C 12.789062 20.183594 12.820312 20.003906 12.855469 19.828125 C 12.921875 19.480469 13.050781 19.144531 13.179688 18.828125 C 13.265625 18.621094 13.363281 18.417969 13.457031 18.214844 C 13.546875 18.015625 13.632812 17.816406 13.722656 17.609375 C 13.804688 17.410156 13.875 17.210938 13.941406 17.007812 C 14.011719 16.804688 14.070312 16.601562 14.121094 16.398438 C 14.164062 16.238281 14.203125 16.074219 14.234375 15.914062 C 14.265625 16.050781 14.289062 16.1875 14.304688 16.328125 C 14.324219 16.464844 14.335938 16.605469 14.339844 16.746094 C 14.34375 17.027344 14.335938 17.308594 14.285156 17.59375 C 14.269531 17.699219 14.25 17.804688 14.226562 17.910156 C 14.203125 18.015625 14.175781 18.117188 14.144531 18.222656 C 14.109375 18.328125 14.070312 18.429688 14.035156 18.53125 C 13.996094 18.632812 13.953125 18.734375 13.90625 18.835938 C 13.683594 19.300781 13.40625 19.734375 13.167969 20.210938 C 13.042969 20.472656 12.933594 20.742188 12.855469 21.03125 Z M 11.59375 28.386719 C 11.488281 28.191406 11.398438 27.976562 11.316406 27.769531 C 11.238281 27.558594 11.160156 27.351562 11.101562 27.144531 C 11.019531 26.871094 10.941406 26.601562 10.871094 26.332031 C 10.800781 26.058594 10.730469 25.789062 10.644531 25.523438 C 10.570312 25.25 10.484375 24.980469 10.390625 24.714844 C 10.296875 24.445312 10.203125 24.179688 10.09375 23.917969 C 10.003906 23.699219 9.917969 23.480469 9.820312 23.269531 C 10.054688 23.515625 10.265625 23.785156 10.46875 24.066406 C 10.570312 24.207031 10.664062 24.355469 10.75 24.503906 C 10.84375 24.652344 10.929688 24.800781 11.011719 24.957031 C 11.074219 25.074219 11.128906 25.195312 11.183594 25.316406 C 11.242188 25.4375 11.296875 25.558594 11.34375 25.683594 C 11.394531 25.804688 11.4375 25.929688 11.480469 26.058594 C 11.523438 26.183594 11.5625 26.308594 11.597656 26.4375 C 11.640625 26.589844 11.679688 26.746094 11.710938 26.902344 C 11.746094 27.058594 11.78125 27.210938 11.8125 27.367188 L 11.902344 27.832031 C 11.933594 27.992188 11.96875 28.140625 12.003906 28.296875 C 12.050781 28.492188 12.101562 28.675781 12.160156 28.867188 C 12.21875 29.054688 12.28125 29.234375 12.355469 29.414062 C 12.050781 29.136719 11.800781 28.785156 11.59375 28.386719 Z M 12.1875 32.535156 C 11.394531 32.835938 10.511719 32.871094 9.632812 32.539062 C 9.4375 32.460938 9.253906 32.371094 9.066406 32.261719 C 9.363281 32.304688 9.65625 32.320312 9.945312 32.316406 C 10.230469 32.304688 10.515625 32.273438 10.792969 32.226562 C 11.246094 32.136719 11.679688 31.980469 12.117188 31.835938 C 12.550781 31.6875 12.984375 31.546875 13.445312 31.488281 C 13.761719 31.445312 14.09375 31.449219 14.402344 31.515625 C 13.632812 31.757812 12.945312 32.246094 12.1875 32.535156 Z M 25.882812 38.832031 C 26.328125 38.628906 26.777344 38.441406 27.203125 38.164062 C 27.589844 37.914062 27.949219 37.601562 28.277344 37.21875 C 28.414062 37.0625 28.539062 36.890625 28.660156 36.710938 C 28.617188 36.898438 28.5625 37.078125 28.496094 37.25 C 28.433594 37.425781 28.363281 37.589844 28.289062 37.746094 C 28.132812 38.0625 27.949219 38.34375 27.746094 38.585938 C 27.421875 38.96875 27.042969 39.265625 26.640625 39.453125 C 26.117188 39.6875 25.5625 39.753906 25.019531 39.863281 C 24.703125 39.925781 24.386719 40.011719 24.078125 40.136719 C 24.546875 39.492188 25.230469 39.125 25.882812 38.832031 Z M 24.300781 36.742188 C 23.976562 35.796875 23.382812 35 22.894531 34.152344 C 22.828125 34.03125 22.757812 33.910156 22.695312 33.785156 C 22.628906 33.660156 22.570312 33.535156 22.511719 33.40625 C 22.394531 33.152344 22.289062 32.890625 22.199219 32.625 C 22.007812 32.09375 21.867188 31.539062 21.757812 30.976562 C 21.714844 30.742188 21.6875 30.503906 21.660156 30.269531 C 21.972656 30.988281 22.324219 31.695312 22.6875 32.382812 C 22.824219 32.636719 22.957031 32.886719 23.105469 33.132812 C 23.242188 33.382812 23.382812 33.628906 23.519531 33.882812 C 23.78125 34.386719 24.023438 34.910156 24.164062 35.46875 C 24.277344 35.886719 24.332031 36.324219 24.300781 36.742188 Z M 24.300781 36.742188 " fill-opacity="1" fill-rule="nonzero"/></g><g clip-path="url(#87598fefa0)"><path fill="#735e4d" d="M 61.738281 35.683594 C 60.566406 32.714844 57.179688 30.574219 55.386719 29.605469 C 54.65625 29.214844 53.136719 28.433594 51.464844 27.578125 C 51.453125 27.546875 51.4375 27.515625 51.421875 27.484375 C 51.414062 27.445312 51.40625 27.402344 51.394531 27.363281 C 51.375 27.273438 51.3125 27.179688 51.230469 27.113281 L 51.195312 27.042969 C 51.078125 26.824219 50.679688 26.753906 50.664062 26.945312 C 50.660156 27.015625 50.652344 27.085938 50.640625 27.152344 C 48.601562 26.109375 44.914062 24.167969 44.890625 24.152344 C 43.855469 23.53125 42.75 22.769531 42.058594 22.011719 C 41.371094 21.390625 40.746094 20.285156 40.472656 19.59375 C 39.988281 18.628906 39.851562 17.246094 39.988281 16.140625 C 40.058594 15.105469 40.265625 13.585938 42.128906 11.722656 C 43.371094 10.617188 45.441406 9.71875 47.652344 9.71875 C 49.929688 9.71875 52.277344 10.480469 53.867188 11.929688 C 55.523438 13.378906 56.972656 15.453125 57.941406 20.214844 L 59.046875 20.214844 L 58.492188 9.445312 L 57.457031 9.445312 C 57.457031 10.066406 57.042969 12.757812 56.078125 11.859375 C 55.25 11.101562 53.246094 9.929688 51.933594 9.445312 C 50.554688 8.890625 49.035156 8.683594 47.515625 8.683594 C 45.71875 8.683594 44.0625 8.960938 42.613281 9.511719 C 41.59375 9.902344 40.644531 10.390625 39.789062 11.007812 C 39.785156 10.960938 39.777344 10.914062 39.773438 10.871094 C 39.6875 10.140625 39.617188 9.40625 39.589844 8.644531 C 39.585938 8.507812 39.457031 8.445312 39.339844 8.5 C 39.320312 8.507812 39.304688 8.519531 39.285156 8.53125 L 39.28125 8.53125 C 38.6875 8.953125 38.035156 9.160156 37.402344 9.441406 C 36.765625 9.722656 36.144531 10.070312 35.632812 10.785156 C 35.089844 11.542969 34.828125 12.488281 34.667969 13.390625 C 34.511719 14.257812 34.449219 15.132812 34.492188 15.980469 C 34.539062 16.921875 34.730469 17.8125 35.039062 18.605469 C 35.058594 18.65625 35.085938 18.699219 35.117188 18.726562 C 35.039062 19.367188 35.007812 20.015625 35.027344 20.664062 C 35.058594 21.683594 35.214844 22.710938 35.539062 23.6875 C 35.851562 24.667969 36.347656 25.582031 36.945312 26.410156 C 37.582031 27.292969 38.332031 28.078125 39.132812 28.800781 C 39.933594 29.527344 40.785156 30.1875 41.648438 30.824219 C 40.296875 30.183594 38.9375 29.578125 37.574219 28.828125 C 37.546875 28.804688 37.515625 28.785156 37.480469 28.765625 L 37.414062 28.738281 C 36.996094 28.5 36.574219 28.253906 36.160156 27.980469 C 35.539062 27.574219 34.921875 27.117188 34.332031 26.59375 C 34.035156 26.332031 33.742188 26.054688 33.460938 25.757812 C 33.320312 25.609375 33.175781 25.457031 33.042969 25.300781 C 32.910156 25.144531 32.769531 24.988281 32.644531 24.824219 L 32.601562 24.613281 C 32.5625 23.613281 32.597656 22.609375 32.664062 21.628906 C 32.726562 20.648438 32.824219 19.6875 32.90625 18.738281 C 32.980469 17.898438 33.011719 17.074219 33.101562 16.25 C 33.144531 15.867188 33.199219 15.480469 33.261719 15.101562 C 33.292969 14.914062 33.324219 14.726562 33.359375 14.539062 C 33.394531 14.351562 33.429688 14.164062 33.46875 13.980469 C 33.523438 13.730469 33.574219 13.476562 33.636719 13.234375 L 33.726562 12.863281 L 33.824219 12.496094 C 33.835938 12.464844 33.84375 12.433594 33.847656 12.402344 L 33.867188 12.320312 C 33.945312 12.03125 33.734375 11.949219 33.554688 12.097656 C 32.507812 12.988281 31.582031 14.351562 31.0625 16.0625 C 30.808594 16.902344 30.675781 17.796875 30.667969 18.699219 C 30.660156 19.691406 30.816406 20.667969 31.054688 21.625 C 31.09375 21.765625 31.132812 21.910156 31.171875 22.054688 C 30.835938 21.230469 30.566406 20.375 30.363281 19.507812 C 30.164062 18.644531 30.023438 17.765625 29.933594 16.882812 L 29.894531 16.46875 L 29.871094 16.058594 C 29.863281 15.917969 29.851562 15.78125 29.847656 15.640625 L 29.835938 15.226562 C 29.828125 14.976562 29.824219 14.726562 29.832031 14.46875 C 29.839844 14.207031 29.867188 13.957031 29.914062 13.695312 C 29.949219 13.511719 30.011719 13.316406 30.089844 13.132812 C 30.167969 12.953125 30.265625 12.792969 30.386719 12.679688 C 30.621094 12.457031 30.867188 12.492188 30.992188 12.695312 C 31.050781 12.796875 31.097656 12.953125 31.105469 13.125 C 31.117188 13.300781 31.097656 13.5 31.023438 13.671875 C 31.003906 13.726562 30.980469 13.757812 30.953125 13.800781 C 30.929688 13.835938 30.90625 13.828125 30.890625 13.820312 C 30.875 13.816406 30.847656 13.800781 30.832031 13.757812 C 30.832031 13.757812 30.828125 13.730469 30.824219 13.710938 C 30.828125 13.699219 30.832031 13.65625 30.835938 13.640625 C 30.9375 13.1875 30.496094 13.234375 30.394531 13.703125 C 30.34375 13.953125 30.371094 14.175781 30.449219 14.328125 C 30.527344 14.480469 30.65625 14.566406 30.800781 14.539062 C 30.980469 14.507812 31.140625 14.34375 31.265625 14.121094 C 31.390625 13.898438 31.488281 13.628906 31.527344 13.375 C 31.574219 13.101562 31.578125 12.851562 31.542969 12.628906 C 31.507812 12.410156 31.4375 12.226562 31.335938 12.085938 C 31.128906 11.8125 30.800781 11.730469 30.40625 12 C 30.050781 12.242188 29.742188 12.789062 29.578125 13.335938 C 29.53125 13.5 29.492188 13.664062 29.464844 13.824219 C 29.449219 13.90625 29.4375 13.984375 29.429688 14.066406 C 29.417969 14.148438 29.410156 14.230469 29.402344 14.3125 C 29.390625 14.476562 29.382812 14.636719 29.378906 14.796875 C 29.378906 14.960938 29.382812 15.121094 29.382812 15.277344 C 29.414062 16.648438 29.578125 18.015625 29.867188 19.359375 C 30.023438 20.035156 30.195312 20.699219 30.425781 21.359375 C 30.390625 21.285156 30.355469 21.214844 30.320312 21.144531 C 29.546875 19.609375 28.933594 18.050781 28.398438 16.523438 C 28.34375 16.363281 28.226562 16.316406 28.113281 16.472656 C 28.011719 16.609375 27.945312 16.90625 28.011719 17.070312 C 28.140625 17.414062 28.265625 17.75 28.402344 18.097656 C 28.472656 18.269531 28.539062 18.4375 28.609375 18.609375 C 28.679688 18.78125 28.75 18.953125 28.824219 19.128906 L 28.933594 19.382812 L 29.046875 19.644531 C 29.125 19.816406 29.203125 19.988281 29.277344 20.160156 C 29.359375 20.332031 29.441406 20.503906 29.523438 20.675781 L 29.648438 20.933594 L 29.777344 21.191406 C 29.867188 21.363281 29.953125 21.535156 30.042969 21.703125 C 30.136719 21.875 30.230469 22.046875 30.324219 22.214844 C 30.414062 22.386719 30.515625 22.554688 30.617188 22.722656 C 30.71875 22.890625 30.8125 23.058594 30.921875 23.226562 C 31.339844 23.890625 31.804688 24.539062 32.304688 25.152344 C 32.789062 25.75 33.316406 26.296875 33.859375 26.785156 C 33.265625 26.367188 32.679688 25.898438 32.132812 25.417969 C 31.847656 25.179688 31.585938 24.945312 31.316406 24.71875 C 31.179688 24.609375 31.050781 24.5 30.917969 24.386719 C 30.785156 24.28125 30.65625 24.175781 30.523438 24.074219 C 30.167969 23.804688 29.820312 23.570312 29.472656 23.382812 C 29.132812 23.203125 28.75 23.007812 28.429688 23.089844 C 28.277344 23.132812 28.132812 23.265625 28.03125 23.492188 C 27.933594 23.714844 27.894531 24.039062 27.9375 24.445312 C 27.957031 24.648438 28.011719 24.847656 28.070312 25.027344 C 28.132812 25.210938 28.203125 25.378906 28.289062 25.535156 C 28.46875 25.847656 28.671875 26.09375 28.867188 26.273438 C 29.089844 26.46875 29.328125 26.597656 29.507812 26.578125 C 29.691406 26.5625 29.8125 26.402344 29.820312 26.035156 C 29.824219 25.863281 29.808594 25.660156 29.757812 25.457031 C 29.707031 25.257812 29.625 25.054688 29.535156 24.878906 C 29.347656 24.53125 29.105469 24.355469 28.957031 24.527344 C 28.855469 24.644531 28.890625 24.929688 28.980469 25.152344 C 29.070312 25.375 29.21875 25.53125 29.3125 25.40625 C 29.285156 25.441406 29.3125 25.285156 29.332031 25.449219 C 29.328125 25.433594 29.328125 25.484375 29.328125 25.503906 C 29.320312 25.632812 29.230469 25.648438 29.164062 25.628906 C 29.058594 25.601562 28.929688 25.511719 28.796875 25.382812 C 28.667969 25.25 28.546875 25.074219 28.460938 24.871094 C 28.269531 24.425781 28.4375 24.109375 28.585938 24.042969 C 28.820312 23.941406 29.128906 24.089844 29.394531 24.207031 C 29.675781 24.328125 29.96875 24.492188 30.253906 24.683594 C 30.328125 24.734375 30.398438 24.78125 30.472656 24.835938 C 30.546875 24.886719 30.621094 24.9375 30.695312 24.992188 C 30.84375 25.101562 30.996094 25.214844 31.144531 25.335938 C 31.296875 25.453125 31.449219 25.574219 31.605469 25.699219 C 31.765625 25.820312 31.914062 25.949219 32.078125 26.074219 C 32.234375 26.195312 32.394531 26.320312 32.554688 26.445312 C 32.71875 26.566406 32.878906 26.6875 33.042969 26.808594 C 33.195312 26.917969 33.351562 27.027344 33.507812 27.140625 C 33.664062 27.246094 33.820312 27.351562 33.976562 27.453125 C 33.910156 27.433594 33.84375 27.417969 33.777344 27.398438 C 33.628906 27.359375 33.480469 27.324219 33.332031 27.292969 C 33.1875 27.261719 33.042969 27.230469 32.898438 27.207031 C 32.613281 27.164062 32.332031 27.136719 32.066406 27.132812 C 31.457031 27.128906 30.902344 27.277344 30.34375 27.402344 C 30.027344 27.472656 29.707031 27.535156 29.367188 27.535156 C 29.195312 27.539062 29.023438 27.527344 28.839844 27.492188 C 28.65625 27.457031 28.46875 27.402344 28.273438 27.316406 C 28.167969 27.269531 28.128906 27.402344 28.148438 27.585938 C 28.171875 27.769531 28.253906 28.003906 28.382812 28.152344 L 28.460938 28.246094 C 28.539062 28.40625 28.648438 28.535156 28.753906 28.609375 C 28.800781 28.644531 28.847656 28.675781 28.894531 28.710938 C 29.761719 29.589844 30.667969 30.203125 31.511719 30.574219 C 32.355469 30.941406 33.140625 31.085938 33.824219 31.027344 C 34.144531 31.003906 34.425781 30.921875 34.695312 30.824219 C 34.960938 30.722656 35.214844 30.597656 35.464844 30.476562 C 35.945312 30.242188 36.410156 29.988281 36.863281 29.722656 C 37.09375 29.589844 37.320312 29.453125 37.546875 29.3125 C 37.550781 29.3125 37.554688 29.3125 37.5625 29.3125 C 38.101562 29.601562 38.640625 29.867188 39.175781 30.125 C 40.5 30.757812 41.8125 31.351562 43.105469 31.996094 C 43.191406 32.035156 43.261719 32.039062 43.3125 32.019531 C 44.640625 32.953125 45.976562 33.871094 47.242188 34.875 C 48.050781 35.515625 48.828125 36.199219 49.554688 36.929688 C 49.917969 37.292969 50.261719 37.675781 50.597656 38.066406 C 50.925781 38.460938 51.242188 38.867188 51.535156 39.289062 C 52.523438 40.71875 53.257812 42.335938 53.542969 44.050781 C 53.566406 44.207031 53.597656 44.359375 53.613281 44.515625 L 53.667969 44.980469 L 53.691406 45.445312 C 53.703125 45.601562 53.695312 45.757812 53.699219 45.910156 C 53.691406 46.535156 53.625 47.15625 53.492188 47.761719 C 53.390625 48.242188 53.230469 48.707031 53.035156 49.160156 C 51.644531 49.945312 49.898438 50.320312 47.859375 50.320312 C 46.203125 50.253906 44.683594 50.046875 43.304688 49.5625 C 41.921875 49.078125 40.332031 48.179688 39.230469 47.285156 C 37.847656 46.246094 36.675781 44.867188 36.121094 43.484375 C 35.429688 41.898438 35.015625 40.308594 34.671875 38.101562 L 33.636719 38.101562 L 34.328125 50.183594 L 35.363281 50.183594 C 35.363281 50.183594 35.84375 46.453125 37.15625 47.558594 C 38.398438 48.664062 40.472656 49.90625 42.128906 50.460938 C 43.785156 51.082031 45.648438 51.355469 47.652344 51.355469 C 49.863281 51.355469 51.796875 51.082031 53.589844 50.460938 C 55.386719 49.90625 56.972656 49.078125 58.285156 47.972656 C 59.597656 46.867188 60.566406 45.625 61.324219 44.105469 C 62.015625 42.589844 62.359375 40.929688 62.359375 39.136719 C 62.429688 37.683594 62.222656 36.789062 61.738281 35.683594 Z M 31.09375 19.128906 C 31.054688 18.277344 31.144531 17.421875 31.34375 16.613281 C 31.398438 16.410156 31.449219 16.207031 31.515625 16.011719 C 31.582031 15.816406 31.648438 15.625 31.726562 15.433594 C 31.804688 15.246094 31.886719 15.0625 31.972656 14.882812 C 32.058594 14.703125 32.152344 14.535156 32.246094 14.367188 C 32.363281 14.164062 32.492188 13.972656 32.621094 13.789062 C 32.511719 14.019531 32.398438 14.246094 32.300781 14.488281 C 32.25 14.609375 32.199219 14.730469 32.152344 14.851562 C 32.105469 14.972656 32.058594 15.101562 32.015625 15.226562 C 31.839844 15.730469 31.707031 16.257812 31.613281 16.800781 C 31.476562 17.625 31.4375 18.460938 31.460938 19.308594 C 31.484375 20.152344 31.566406 21.003906 31.691406 21.871094 C 31.71875 22.03125 31.734375 22.195312 31.765625 22.359375 L 31.84375 22.851562 C 31.460938 21.628906 31.152344 20.398438 31.09375 19.128906 Z M 32.273438 21.171875 C 32.261719 21.273438 32.253906 21.375 32.246094 21.476562 C 32.238281 21.578125 32.230469 21.679688 32.226562 21.78125 C 32.210938 21.984375 32.191406 22.191406 32.1875 22.394531 C 32.042969 21.515625 31.9375 20.644531 31.890625 19.785156 C 31.847656 18.949219 31.863281 18.125 31.964844 17.316406 C 32.066406 16.507812 32.253906 15.710938 32.546875 14.957031 C 32.628906 14.757812 32.710938 14.554688 32.800781 14.363281 C 32.890625 14.171875 32.984375 13.980469 33.082031 13.796875 C 32.933594 14.492188 32.808594 15.203125 32.71875 15.933594 C 32.628906 16.683594 32.589844 17.449219 32.535156 18.21875 C 32.457031 19.191406 32.355469 20.171875 32.273438 21.171875 Z M 29.941406 28.453125 C 30.308594 28.394531 30.65625 28.289062 31.007812 28.183594 C 31.355469 28.082031 31.707031 27.984375 32.082031 27.9375 C 32.328125 27.90625 32.589844 27.894531 32.855469 27.910156 C 33.125 27.925781 33.398438 27.960938 33.683594 28.011719 C 33.824219 28.035156 33.964844 28.0625 34.109375 28.097656 C 34.253906 28.128906 34.402344 28.164062 34.546875 28.203125 C 34.839844 28.285156 35.140625 28.367188 35.441406 28.46875 C 35.621094 28.527344 35.800781 28.589844 35.976562 28.65625 C 35.769531 28.628906 35.5625 28.601562 35.359375 28.582031 C 35.050781 28.546875 34.753906 28.519531 34.457031 28.511719 C 34.164062 28.496094 33.875 28.492188 33.589844 28.507812 C 33.074219 28.523438 32.574219 28.585938 32.070312 28.625 C 31.570312 28.660156 31.054688 28.683594 30.503906 28.589844 C 30.320312 28.558594 30.132812 28.511719 29.941406 28.453125 Z M 35.320312 29.78125 C 34.84375 29.996094 34.367188 30.238281 33.8125 30.328125 C 33.140625 30.441406 32.332031 30.3125 31.464844 29.921875 C 31.15625 29.773438 30.835938 29.605469 30.515625 29.386719 C 30.667969 29.414062 30.8125 29.433594 30.957031 29.445312 C 31.105469 29.460938 31.246094 29.460938 31.386719 29.460938 C 31.667969 29.460938 31.9375 29.441406 32.199219 29.410156 C 32.714844 29.347656 33.214844 29.265625 33.734375 29.207031 C 33.992188 29.179688 34.253906 29.160156 34.523438 29.152344 C 34.792969 29.140625 35.070312 29.140625 35.355469 29.164062 C 35.707031 29.179688 36.054688 29.214844 36.40625 29.242188 C 36.050781 29.429688 35.6875 29.613281 35.320312 29.78125 Z M 51.46875 29.164062 C 51.480469 29.078125 51.488281 28.988281 51.496094 28.902344 C 51.835938 29.871094 51.984375 30.835938 51.84375 31.648438 C 51.742188 32.21875 51.496094 32.695312 51.265625 33.175781 C 51.0625 33.597656 50.847656 34.015625 50.625 34.421875 C 50.617188 34.289062 50.609375 34.15625 50.601562 34.023438 C 50.597656 33.890625 50.589844 33.761719 50.589844 33.632812 C 50.578125 33.054688 50.625 32.515625 50.738281 31.996094 C 50.84375 31.515625 50.992188 31.058594 51.128906 30.59375 C 51.269531 30.128906 51.402344 29.664062 51.46875 29.164062 Z M 49.746094 31.273438 C 49.773438 31.027344 49.824219 30.789062 49.898438 30.5625 C 50.066406 30.011719 50.351562 29.535156 50.617188 29.042969 C 50.722656 28.84375 50.828125 28.644531 50.917969 28.433594 C 50.886719 29.050781 50.742188 29.628906 50.578125 30.183594 C 50.441406 30.667969 50.300781 31.144531 50.199219 31.640625 C 50.09375 32.140625 50.027344 32.648438 50.03125 33.207031 C 50.035156 33.472656 50.050781 33.742188 50.066406 34.015625 C 49.964844 33.671875 49.878906 33.34375 49.820312 33.011719 C 49.761719 32.6875 49.726562 32.359375 49.714844 32.046875 C 49.703125 31.78125 49.714844 31.523438 49.746094 31.273438 Z M 42.75 26.152344 C 43.214844 26.472656 43.675781 26.84375 44.105469 27.265625 C 44.582031 27.738281 45.027344 28.261719 45.503906 28.785156 C 45.71875 29.023438 45.941406 29.261719 46.175781 29.496094 C 45.507812 29.03125 44.90625 28.507812 44.351562 27.996094 C 43.882812 27.566406 43.433594 27.132812 42.984375 26.730469 C 42.535156 26.324219 42.097656 25.96875 41.660156 25.648438 C 41.480469 25.519531 41.304688 25.390625 41.125 25.265625 C 41.667969 25.492188 42.210938 25.78125 42.75 26.152344 Z M 41.300781 25.894531 C 41.742188 26.210938 42.175781 26.5625 42.621094 26.957031 C 43.511719 27.75 44.382812 28.652344 45.425781 29.460938 C 45.515625 29.527344 45.609375 29.597656 45.699219 29.664062 C 44.746094 29.308594 43.832031 28.84375 43.058594 28.226562 C 42.566406 27.832031 42.15625 27.363281 41.777344 26.914062 C 41.40625 26.472656 41.078125 26.027344 40.796875 25.589844 L 40.734375 25.492188 C 40.925781 25.628906 41.113281 25.761719 41.300781 25.894531 Z M 36.957031 11.085938 C 36.34375 11.847656 35.890625 12.742188 35.585938 13.6875 C 35.285156 14.640625 35.136719 15.632812 35.132812 16.589844 C 35.132812 16.738281 35.128906 16.882812 35.136719 17.03125 L 35.15625 17.46875 C 35.019531 16.898438 34.9375 16.289062 34.917969 15.664062 C 34.898438 15.039062 34.941406 14.398438 35.039062 13.753906 C 35.160156 12.941406 35.347656 12.058594 35.777344 11.320312 C 36.175781 10.636719 36.785156 10.25 37.363281 9.976562 C 37.960938 9.695312 38.5625 9.503906 39.144531 9.15625 C 39.167969 9.703125 39.203125 10.25 39.28125 10.773438 C 39.367188 11.378906 39.449219 12.023438 39.261719 12.683594 C 39.046875 13.433594 38.53125 14.066406 38.089844 14.65625 C 37.644531 15.238281 37.203125 15.808594 36.753906 16.378906 C 36.671875 16.488281 36.585938 16.597656 36.5 16.703125 C 36.414062 16.8125 36.332031 16.921875 36.246094 17.027344 C 36.636719 16.257812 37.042969 15.496094 37.460938 14.730469 C 37.871094 13.960938 38.289062 13.1875 38.699219 12.394531 C 38.863281 12.078125 38.5 11.878906 38.332031 12.203125 C 37.933594 12.984375 37.519531 13.742188 37.109375 14.5 C 36.703125 15.257812 36.289062 16.007812 35.902344 16.773438 C 36.207031 15.597656 36.644531 14.457031 37.15625 13.347656 C 37.40625 12.808594 37.679688 12.28125 37.949219 11.753906 L 37.984375 11.683594 C 38.160156 11.359375 37.796875 11.160156 37.621094 11.488281 C 37.425781 11.855469 37.238281 12.226562 37.054688 12.601562 C 36.5625 13.609375 36.121094 14.648438 35.777344 15.722656 C 35.695312 15.964844 35.628906 16.214844 35.558594 16.460938 C 35.585938 15.207031 35.835938 13.914062 36.410156 12.726562 C 36.640625 12.25 36.917969 11.8125 37.238281 11.410156 C 37.46875 11.125 37.191406 10.796875 36.957031 11.085938 Z M 48.699219 35.554688 C 47.027344 34.078125 45.1875 32.835938 43.390625 31.570312 C 42.476562 30.925781 41.570312 30.273438 40.699219 29.582031 C 39.828125 28.886719 38.992188 28.15625 38.246094 27.347656 C 37.554688 26.59375 36.945312 25.773438 36.480469 24.875 C 36.246094 24.425781 36.054688 23.957031 35.90625 23.476562 C 35.820312 23.238281 35.765625 22.992188 35.703125 22.746094 C 35.695312 22.722656 35.691406 22.699219 35.6875 22.671875 C 35.796875 23.046875 35.941406 23.398438 36.121094 23.738281 C 36.882812 25.394531 37.710938 26.359375 38.675781 27.257812 C 39.644531 28.15625 40.746094 28.847656 42.335938 29.675781 C 43.371094 30.28125 46.324219 31.773438 48.679688 32.980469 C 49.160156 33.785156 49.648438 34.597656 50.117188 35.429688 L 50.148438 35.492188 C 50.164062 35.53125 50.183594 35.5625 50.207031 35.589844 C 50.519531 36.140625 50.820312 36.703125 51.101562 37.269531 C 51.429688 37.921875 51.734375 38.582031 52.007812 39.25 C 51.085938 37.863281 49.933594 36.648438 48.699219 35.554688 Z M 56.835938 42.585938 C 56.835938 44.796875 55.730469 47.144531 54.144531 48.386719 C 53.980469 48.527344 53.808594 48.660156 53.632812 48.785156 C 53.664062 48.683594 53.695312 48.582031 53.730469 48.480469 C 54.066406 47.375 54.167969 46.214844 54.085938 45.074219 C 54.039062 44.429688 53.933594 43.792969 53.78125 43.167969 C 53.628906 42.542969 53.414062 41.933594 53.15625 41.34375 C 53.15625 41.335938 53.15625 41.332031 53.15625 41.328125 C 52.886719 40.324219 52.519531 39.347656 52.101562 38.382812 C 51.675781 37.421875 51.191406 36.480469 50.6875 35.5625 C 50.6875 35.558594 50.6875 35.550781 50.6875 35.546875 C 50.921875 35.164062 51.148438 34.773438 51.367188 34.375 C 51.515625 34.457031 51.636719 34.523438 51.726562 34.578125 C 52.96875 35.269531 53.9375 35.960938 54.625 36.648438 C 55.386719 37.339844 55.800781 37.753906 56.285156 38.722656 C 56.90625 40.171875 56.835938 41.691406 56.835938 42.585938 Z M 56.835938 42.585938 " fill-opacity="1" fill-rule="nonzero"/></g><g fill="#1f7f95" fill-opacity="1"><g transform="translate(66.982922, 31.246674)"><g><path d="M 9.6875 -0.46875 L 9.6875 0 L 0.4375 0 L 0.4375 -0.46875 L 1.03125 -0.46875 C 1.757812 -0.46875 2.265625 -0.648438 2.546875 -1.015625 C 2.828125 -1.378906 2.96875 -1.992188 2.96875 -2.859375 L 2.96875 -15.15625 C 2.96875 -16 2.828125 -16.609375 2.546875 -16.984375 C 2.273438 -17.367188 1.769531 -17.5625 1.03125 -17.5625 L 0.4375 -17.5625 L 0.4375 -18.046875 L 9.6875 -18.046875 L 9.6875 -17.5625 L 9.09375 -17.5625 C 8.363281 -17.5625 7.851562 -17.378906 7.5625 -17.015625 C 7.28125 -16.660156 7.140625 -16.039062 7.140625 -15.15625 L 7.140625 -2.859375 C 7.140625 -2.023438 7.273438 -1.414062 7.546875 -1.03125 C 7.828125 -0.65625 8.34375 -0.46875 9.09375 -0.46875 Z M 9.6875 -0.46875 "/></g></g></g><g fill="#1f7f95" fill-opacity="1"><g transform="translate(77.105524, 31.246674)"><g><path d="M 13.8125 -18.453125 L 13.9375 -12.59375 L 13.4375 -12.59375 C 13.226562 -13.882812 12.550781 -15.007812 11.40625 -15.96875 C 10.257812 -16.9375 8.898438 -17.421875 7.328125 -17.421875 C 6.253906 -17.421875 5.375 -17.160156 4.6875 -16.640625 C 4.007812 -16.128906 3.671875 -15.492188 3.671875 -14.734375 C 3.671875 -14.035156 3.957031 -13.457031 4.53125 -13 C 5.101562 -12.539062 6.210938 -12.039062 7.859375 -11.5 C 9.671875 -10.90625 11.023438 -10.375 11.921875 -9.90625 C 12.816406 -9.445312 13.550781 -8.785156 14.125 -7.921875 C 14.695312 -7.066406 14.984375 -6.113281 14.984375 -5.0625 C 14.984375 -3.457031 14.34375 -2.148438 13.0625 -1.140625 C 11.789062 -0.140625 10.128906 0.359375 8.078125 0.359375 C 6.878906 0.359375 5.507812 0.0703125 3.96875 -0.5 C 3.4375 -0.695312 3.050781 -0.796875 2.8125 -0.796875 C 2.207031 -0.796875 1.742188 -0.410156 1.421875 0.359375 L 0.890625 0.359375 L 0.890625 -6.25 L 1.40625 -6.25 C 1.6875 -4.507812 2.4375 -3.125 3.65625 -2.09375 C 4.875 -1.070312 6.300781 -0.5625 7.9375 -0.5625 C 9.175781 -0.5625 10.164062 -0.816406 10.90625 -1.328125 C 11.65625 -1.847656 12.03125 -2.546875 12.03125 -3.421875 C 12.03125 -4.285156 11.6875 -5 11 -5.5625 C 10.289062 -6.101562 9.078125 -6.675781 7.359375 -7.28125 C 5.640625 -7.875 4.375 -8.390625 3.5625 -8.828125 C 2.75 -9.273438 2.101562 -9.875 1.625 -10.625 C 1.144531 -11.375 0.90625 -12.226562 0.90625 -13.1875 C 0.90625 -14.664062 1.484375 -15.910156 2.640625 -16.921875 C 3.804688 -17.941406 5.28125 -18.453125 7.0625 -18.453125 C 8.300781 -18.453125 9.613281 -18.140625 11 -17.515625 C 11.675781 -17.210938 12.140625 -17.0625 12.390625 -17.0625 C 13.003906 -17.0625 13.3125 -17.523438 13.3125 -18.453125 Z M 13.8125 -18.453125 "/></g></g></g><g fill="#1f7f95" fill-opacity="1"><g transform="translate(92.975813, 31.246674)"><g><path d="M 14.640625 -8.71875 L 6.984375 -8.71875 L 6.984375 -2.859375 C 6.984375 -2.023438 7.117188 -1.414062 7.390625 -1.03125 C 7.660156 -0.65625 8.171875 -0.46875 8.921875 -0.46875 L 9.390625 -0.46875 L 9.390625 0 L 0.4375 0 L 0.4375 -0.46875 L 0.84375 -0.46875 C 1.5625 -0.46875 2.0625 -0.644531 2.34375 -1 C 2.632812 -1.363281 2.78125 -1.984375 2.78125 -2.859375 L 2.78125 -15.15625 C 2.78125 -16.007812 2.640625 -16.625 2.359375 -17 C 2.085938 -17.375 1.582031 -17.5625 0.84375 -17.5625 L 0.4375 -17.5625 L 0.4375 -18.046875 L 9.390625 -18.046875 L 9.390625 -17.5625 L 8.921875 -17.5625 C 8.191406 -17.5625 7.6875 -17.378906 7.40625 -17.015625 C 7.125 -16.660156 6.984375 -16.039062 6.984375 -15.15625 L 6.984375 -9.8125 L 14.640625 -9.8125 L 14.640625 -15.15625 C 14.640625 -16.007812 14.5 -16.625 14.21875 -17 C 13.945312 -17.375 13.441406 -17.5625 12.703125 -17.5625 L 12.296875 -17.5625 L 12.296875 -18.046875 L 21.1875 -18.046875 L 21.1875 -17.5625 L 20.765625 -17.5625 C 20.046875 -17.5625 19.539062 -17.378906 19.25 -17.015625 C 18.96875 -16.660156 18.828125 -16.039062 18.828125 -15.15625 L 18.828125 -2.859375 C 18.828125 -2.023438 18.960938 -1.414062 19.234375 -1.03125 C 19.503906 -0.65625 20.015625 -0.46875 20.765625 -0.46875 L 21.1875 -0.46875 L 21.1875 0 L 12.296875 0 L 12.296875 -0.46875 L 12.703125 -0.46875 C 13.421875 -0.46875 13.921875 -0.644531 14.203125 -1 C 14.492188 -1.363281 14.640625 -1.984375 14.640625 -2.859375 Z M 14.640625 -8.71875 "/></g></g></g><g fill="#1f7f95" fill-opacity="1"><g transform="translate(114.59379, 31.246674)"><g><path d="M 10.78125 -5.109375 L 5.015625 -5.109375 L 4.140625 -3.015625 C 3.941406 -2.515625 3.84375 -2.125 3.84375 -1.84375 C 3.84375 -1.351562 4.015625 -1.003906 4.359375 -0.796875 C 4.703125 -0.597656 5.300781 -0.488281 6.15625 -0.46875 L 6.15625 0 L 0.375 0 L 0.375 -0.46875 C 1.519531 -0.5 2.5625 -1.660156 3.5 -3.953125 L 9.4375 -18.34375 L 9.6875 -18.34375 L 15.921875 -3.15625 C 16.648438 -1.363281 17.507812 -0.46875 18.5 -0.46875 L 18.5 0 L 10.078125 0 L 10.078125 -0.46875 L 10.390625 -0.46875 C 11.578125 -0.46875 12.171875 -0.773438 12.171875 -1.390625 C 12.171875 -1.546875 12.097656 -1.8125 11.953125 -2.1875 Z M 10.390625 -6.0625 L 7.921875 -12.125 L 5.421875 -6.0625 Z M 10.390625 -6.0625 "/></g></g></g><g fill="#1f7f95" fill-opacity="1"><g transform="translate(133.491879, 31.246674)"><g><path d="M 10.296875 -11.390625 L 16.03125 -2.390625 C 16.59375 -1.503906 17.015625 -0.960938 17.296875 -0.765625 C 17.578125 -0.566406 17.992188 -0.46875 18.546875 -0.46875 L 18.546875 0 L 10.125 0 L 10.125 -0.46875 C 11.207031 -0.46875 11.75 -0.707031 11.75 -1.1875 C 11.75 -1.488281 11.523438 -2 11.078125 -2.71875 L 7.578125 -8.21875 L 6.984375 -7.515625 L 6.984375 -2.859375 C 6.984375 -1.878906 7.144531 -1.234375 7.46875 -0.921875 C 7.789062 -0.617188 8.328125 -0.46875 9.078125 -0.46875 L 9.078125 0 L 0.359375 0 L 0.359375 -0.46875 L 0.859375 -0.46875 C 1.585938 -0.46875 2.09375 -0.648438 2.375 -1.015625 C 2.65625 -1.378906 2.796875 -1.992188 2.796875 -2.859375 L 2.796875 -15.15625 C 2.796875 -16 2.65625 -16.609375 2.375 -16.984375 C 2.101562 -17.367188 1.597656 -17.5625 0.859375 -17.5625 L 0.359375 -17.5625 L 0.359375 -18.046875 L 9.078125 -18.046875 L 9.078125 -17.5625 C 8.335938 -17.5625 7.800781 -17.410156 7.46875 -17.109375 C 7.144531 -16.804688 6.984375 -16.15625 6.984375 -15.15625 L 6.984375 -9.015625 L 11.546875 -14.390625 C 12.359375 -15.347656 12.765625 -16.066406 12.765625 -16.546875 C 12.765625 -17.222656 12.203125 -17.5625 11.078125 -17.5625 L 10.8125 -17.5625 L 10.8125 -18.046875 L 17.59375 -18.046875 L 17.59375 -17.5625 C 16.738281 -17.507812 15.921875 -17.203125 15.140625 -16.640625 C 14.367188 -16.078125 13.296875 -14.96875 11.921875 -13.3125 Z M 10.296875 -11.390625 "/></g></g></g><g fill="#1f7f95" fill-opacity="1"><g transform="translate(152.389968, 31.246674)"><g><path d="M 10.78125 -5.109375 L 5.015625 -5.109375 L 4.140625 -3.015625 C 3.941406 -2.515625 3.84375 -2.125 3.84375 -1.84375 C 3.84375 -1.351562 4.015625 -1.003906 4.359375 -0.796875 C 4.703125 -0.597656 5.300781 -0.488281 6.15625 -0.46875 L 6.15625 0 L 0.375 0 L 0.375 -0.46875 C 1.519531 -0.5 2.5625 -1.660156 3.5 -3.953125 L 9.4375 -18.34375 L 9.6875 -18.34375 L 15.921875 -3.15625 C 16.648438 -1.363281 17.507812 -0.46875 18.5 -0.46875 L 18.5 0 L 10.078125 0 L 10.078125 -0.46875 L 10.390625 -0.46875 C 11.578125 -0.46875 12.171875 -0.773438 12.171875 -1.390625 C 12.171875 -1.546875 12.097656 -1.8125 11.953125 -2.1875 Z M 10.390625 -6.0625 L 7.921875 -12.125 L 5.421875 -6.0625 Z M 10.390625 -6.0625 "/></g></g></g><g fill="#1f7f95" fill-opacity="1"><g transform="translate(171.288057, 31.246674)"><g><path d="M 16.90625 -6.15625 L 16.265625 0 L 0.421875 0 L 0.421875 -0.46875 L 1.328125 -0.46875 C 2.046875 -0.46875 2.546875 -0.648438 2.828125 -1.015625 C 3.117188 -1.378906 3.265625 -1.992188 3.265625 -2.859375 L 3.265625 -15.15625 C 3.265625 -16 3.125 -16.609375 2.84375 -16.984375 C 2.570312 -17.367188 2.066406 -17.5625 1.328125 -17.5625 L 0.421875 -17.5625 L 0.421875 -18.046875 L 10.625 -18.046875 L 10.625 -17.5625 L 9.390625 -17.5625 C 8.660156 -17.5625 8.15625 -17.378906 7.875 -17.015625 C 7.59375 -16.660156 7.453125 -16.039062 7.453125 -15.15625 L 7.453125 -3.09375 C 7.453125 -2.25 7.546875 -1.675781 7.734375 -1.375 C 7.929688 -1.070312 8.40625 -0.921875 9.15625 -0.921875 L 10.890625 -0.921875 C 11.835938 -0.921875 12.640625 -1.0625 13.296875 -1.34375 C 13.960938 -1.632812 14.566406 -2.164062 15.109375 -2.9375 C 15.660156 -3.71875 16.101562 -4.789062 16.4375 -6.15625 Z M 16.90625 -6.15625 "/></g></g></g><g fill="#1f7f95" fill-opacity="1"><g transform="translate(188.813372, 31.246674)"><g><path d="M 10.78125 -5.109375 L 5.015625 -5.109375 L 4.140625 -3.015625 C 3.941406 -2.515625 3.84375 -2.125 3.84375 -1.84375 C 3.84375 -1.351562 4.015625 -1.003906 4.359375 -0.796875 C 4.703125 -0.597656 5.300781 -0.488281 6.15625 -0.46875 L 6.15625 0 L 0.375 0 L 0.375 -0.46875 C 1.519531 -0.5 2.5625 -1.660156 3.5 -3.953125 L 9.4375 -18.34375 L 9.6875 -18.34375 L 15.921875 -3.15625 C 16.648438 -1.363281 17.507812 -0.46875 18.5 -0.46875 L 18.5 0 L 10.078125 0 L 10.078125 -0.46875 L 10.390625 -0.46875 C 11.578125 -0.46875 12.171875 -0.773438 12.171875 -1.390625 C 12.171875 -1.546875 12.097656 -1.8125 11.953125 -2.1875 Z M 10.390625 -6.0625 L 7.921875 -12.125 L 5.421875 -6.0625 Z M 10.390625 -6.0625 "/></g></g></g><g fill="#1f7f95" fill-opacity="1"><g transform="translate(207.722818, 31.246674)"><g/></g></g><g fill="#735e4d" fill-opacity="1"><g transform="translate(87.332473, 55.81971)"><g><path d="M 14.625 -19.546875 L 14.765625 -13.34375 L 14.234375 -13.34375 C 14.015625 -14.707031 13.296875 -15.898438 12.078125 -16.921875 C 10.867188 -17.953125 9.429688 -18.46875 7.765625 -18.46875 C 6.628906 -18.46875 5.695312 -18.191406 4.96875 -17.640625 C 4.25 -17.085938 3.890625 -16.410156 3.890625 -15.609375 C 3.890625 -14.867188 4.191406 -14.253906 4.796875 -13.765625 C 5.398438 -13.273438 6.578125 -12.75 8.328125 -12.1875 C 10.242188 -11.5625 11.675781 -11 12.625 -10.5 C 13.582031 -10.007812 14.363281 -9.3125 14.96875 -8.40625 C 15.570312 -7.5 15.875 -6.488281 15.875 -5.375 C 15.875 -3.664062 15.195312 -2.28125 13.84375 -1.21875 C 12.488281 -0.15625 10.722656 0.375 8.546875 0.375 C 7.285156 0.375 5.835938 0.0703125 4.203125 -0.53125 C 3.640625 -0.738281 3.234375 -0.84375 2.984375 -0.84375 C 2.335938 -0.84375 1.847656 -0.4375 1.515625 0.375 L 0.9375 0.375 L 0.9375 -6.625 L 1.484375 -6.625 C 1.785156 -4.78125 2.582031 -3.3125 3.875 -2.21875 C 5.164062 -1.132812 6.679688 -0.59375 8.421875 -0.59375 C 9.734375 -0.59375 10.78125 -0.863281 11.5625 -1.40625 C 12.351562 -1.957031 12.75 -2.695312 12.75 -3.625 C 12.75 -4.539062 12.382812 -5.296875 11.65625 -5.890625 C 10.90625 -6.460938 9.617188 -7.066406 7.796875 -7.703125 C 5.984375 -8.335938 4.644531 -8.890625 3.78125 -9.359375 C 2.914062 -9.828125 2.226562 -10.457031 1.71875 -11.25 C 1.21875 -12.050781 0.96875 -12.957031 0.96875 -13.96875 C 0.96875 -15.539062 1.582031 -16.863281 2.8125 -17.9375 C 4.039062 -19.007812 5.597656 -19.546875 7.484375 -19.546875 C 8.796875 -19.546875 10.1875 -19.21875 11.65625 -18.5625 C 12.363281 -18.238281 12.851562 -18.078125 13.125 -18.078125 C 13.78125 -18.078125 14.109375 -18.566406 14.109375 -19.546875 Z M 14.625 -19.546875 "/></g></g></g><g fill="#735e4d" fill-opacity="1"><g transform="translate(106.09405, 55.81971)"><g><path d="M 17.890625 -19.109375 L 17.890625 -14.078125 L 17.375 -14.078125 C 17.007812 -16.734375 15.648438 -18.0625 13.296875 -18.0625 L 11.5 -18.0625 L 11.5 -3.03125 C 11.5 -2.144531 11.644531 -1.5 11.9375 -1.09375 C 12.226562 -0.695312 12.769531 -0.5 13.5625 -0.5 L 14.25 -0.5 L 14.25 0 L 4.28125 0 L 4.28125 -0.5 L 5.015625 -0.5 C 5.617188 -0.5 6.109375 -0.640625 6.484375 -0.921875 C 6.867188 -1.203125 7.0625 -1.90625 7.0625 -3.03125 L 7.0625 -18.0625 L 5.109375 -18.0625 C 4.359375 -18.0625 3.738281 -17.9375 3.25 -17.6875 C 2.757812 -17.4375 2.316406 -16.96875 1.921875 -16.28125 C 1.535156 -15.601562 1.300781 -14.867188 1.21875 -14.078125 L 0.671875 -14.078125 L 0.671875 -19.109375 Z M 17.890625 -19.109375 "/></g></g></g><g fill="#735e4d" fill-opacity="1"><g transform="translate(126.608887, 55.81971)"><g><path d="M 21.078125 -19.109375 L 21.078125 -18.609375 C 20.328125 -18.609375 19.722656 -18.429688 19.265625 -18.078125 C 18.804688 -17.722656 18.578125 -16.992188 18.578125 -15.890625 L 18.578125 -8.453125 C 18.578125 -6.835938 18.503906 -5.597656 18.359375 -4.734375 C 18.222656 -3.878906 17.84375 -3.039062 17.21875 -2.21875 C 16.59375 -1.394531 15.753906 -0.753906 14.703125 -0.296875 C 13.660156 0.148438 12.375 0.375 10.84375 0.375 C 9.382812 0.375 8.140625 0.179688 7.109375 -0.203125 C 6.085938 -0.585938 5.269531 -1.085938 4.65625 -1.703125 C 4.039062 -2.328125 3.617188 -3.007812 3.390625 -3.75 C 3.171875 -4.5 3.0625 -5.5 3.0625 -6.75 L 3.0625 -15.890625 C 3.0625 -16.660156 3.015625 -17.203125 2.921875 -17.515625 C 2.828125 -17.835938 2.617188 -18.097656 2.296875 -18.296875 C 1.984375 -18.503906 1.460938 -18.609375 0.734375 -18.609375 L 0.375 -18.609375 L 0.375 -19.109375 L 9.859375 -19.109375 L 9.859375 -18.609375 L 9.546875 -18.609375 C 9.003906 -18.609375 8.570312 -18.503906 8.25 -18.296875 C 7.9375 -18.085938 7.734375 -17.832031 7.640625 -17.53125 C 7.546875 -17.238281 7.5 -16.691406 7.5 -15.890625 L 7.5 -6.375 C 7.5 -4.925781 7.59375 -3.890625 7.78125 -3.265625 C 7.96875 -2.648438 8.4375 -2.09375 9.1875 -1.59375 C 9.9375 -1.101562 10.898438 -0.859375 12.078125 -0.859375 C 13.117188 -0.859375 14.023438 -1.054688 14.796875 -1.453125 C 15.578125 -1.859375 16.175781 -2.382812 16.59375 -3.03125 C 17.007812 -3.675781 17.28125 -4.375 17.40625 -5.125 C 17.53125 -5.882812 17.59375 -7.039062 17.59375 -8.59375 L 17.59375 -15.890625 C 17.59375 -16.847656 17.421875 -17.519531 17.078125 -17.90625 C 16.734375 -18.300781 16.109375 -18.535156 15.203125 -18.609375 L 15.203125 -19.109375 Z M 21.078125 -19.109375 "/></g></g></g><g fill="#735e4d" fill-opacity="1"><g transform="translate(150.018643, 55.81971)"><g><path d="M 0.484375 0 L 0.484375 -0.5 L 1.0625 -0.5 C 1.664062 -0.5 2.15625 -0.640625 2.53125 -0.921875 C 2.914062 -1.203125 3.109375 -1.90625 3.109375 -3.03125 L 3.109375 -16.0625 C 3.109375 -16.957031 2.960938 -17.601562 2.671875 -18 C 2.390625 -18.40625 1.851562 -18.609375 1.0625 -18.609375 L 0.484375 -18.609375 L 0.484375 -19.109375 L 9.578125 -19.109375 C 11.648438 -19.109375 13.4375 -18.828125 14.9375 -18.265625 C 16.4375 -17.703125 17.738281 -16.65625 18.84375 -15.125 C 19.945312 -13.59375 20.5 -11.695312 20.5 -9.4375 C 20.5 -7.738281 20.175781 -6.238281 19.53125 -4.9375 C 18.894531 -3.644531 18.0625 -2.617188 17.03125 -1.859375 C 16 -1.109375 14.925781 -0.609375 13.8125 -0.359375 C 12.707031 -0.117188 11.296875 0 9.578125 0 Z M 7.5625 -18.09375 L 7.5625 -3.1875 C 7.5625 -2.28125 7.679688 -1.691406 7.921875 -1.421875 C 8.160156 -1.148438 8.726562 -1.015625 9.625 -1.015625 C 11.601562 -1.015625 13.082031 -1.707031 14.0625 -3.09375 C 15.050781 -4.476562 15.546875 -6.546875 15.546875 -9.296875 C 15.546875 -12.234375 15.007812 -14.429688 13.9375 -15.890625 C 12.863281 -17.359375 11.25 -18.09375 9.09375 -18.09375 Z M 7.5625 -18.09375 "/></g></g></g><g fill="#735e4d" fill-opacity="1"><g transform="translate(173.428394, 55.81971)"><g><path d="M 10.265625 -0.5 L 10.265625 0 L 0.46875 0 L 0.46875 -0.5 L 1.09375 -0.5 C 1.863281 -0.5 2.394531 -0.691406 2.6875 -1.078125 C 2.988281 -1.460938 3.140625 -2.113281 3.140625 -3.03125 L 3.140625 -16.0625 C 3.140625 -16.957031 2.992188 -17.601562 2.703125 -18 C 2.410156 -18.40625 1.875 -18.609375 1.09375 -18.609375 L 0.46875 -18.609375 L 0.46875 -19.109375 L 10.265625 -19.109375 L 10.265625 -18.609375 L 9.640625 -18.609375 C 8.867188 -18.609375 8.332031 -18.414062 8.03125 -18.03125 C 7.726562 -17.644531 7.578125 -16.988281 7.578125 -16.0625 L 7.578125 -3.03125 C 7.578125 -2.144531 7.71875 -1.5 8 -1.09375 C 8.289062 -0.695312 8.835938 -0.5 9.640625 -0.5 Z M 10.265625 -0.5 "/></g></g></g><g fill="#735e4d" fill-opacity="1"><g transform="translate(186.101127, 55.81971)"><g><path d="M 21.75 -9.484375 C 21.75 -6.691406 20.8125 -4.347656 18.9375 -2.453125 C 17.0625 -0.566406 14.570312 0.375 11.46875 0.375 C 9.570312 0.375 7.875 0.0078125 6.375 -0.71875 C 4.882812 -1.457031 3.640625 -2.59375 2.640625 -4.125 C 1.648438 -5.65625 1.15625 -7.476562 1.15625 -9.59375 C 1.15625 -11.75 1.664062 -13.59375 2.6875 -15.125 C 3.71875 -16.65625 5.007812 -17.773438 6.5625 -18.484375 C 8.113281 -19.191406 9.734375 -19.546875 11.421875 -19.546875 C 14.421875 -19.546875 16.890625 -18.613281 18.828125 -16.75 C 20.773438 -14.882812 21.75 -12.460938 21.75 -9.484375 Z M 16.796875 -9.359375 C 16.796875 -12.304688 16.300781 -14.570312 15.3125 -16.15625 C 14.320312 -17.738281 13.039062 -18.53125 11.46875 -18.53125 C 9.863281 -18.53125 8.566406 -17.753906 7.578125 -16.203125 C 6.597656 -14.648438 6.109375 -12.445312 6.109375 -9.59375 C 6.109375 -6.945312 6.570312 -4.78125 7.5 -3.09375 C 8.4375 -1.414062 9.738281 -0.578125 11.40625 -0.578125 C 13.039062 -0.578125 14.347656 -1.363281 15.328125 -2.9375 C 16.304688 -4.507812 16.796875 -6.648438 16.796875 -9.359375 Z M 16.796875 -9.359375 "/></g></g></g></svg>